<?xml version="1.0" encoding="utf-8"?>
<!-- Generator: Adobe Illustrator 27.9.0, SVG Export Plug-In . SVG Version: 6.00 Build 0)  -->
<svg version="1.1" id="Layer_1" xmlns="http://www.w3.org/2000/svg" xmlns:xlink="http://www.w3.org/1999/xlink" x="0px" y="0px"
	 viewBox="0 0 42 43.4" style="enable-background:new 0 0 42 43.4;" xml:space="preserve">
<style type="text/css">
	.st0{fill:#FF08A7;}
	.st1{fill:#FFFFFF;}
</style>
<g>
	<polygon class="st0" points="20.3,3 20.3,14.7 3,14.7 3,28.7 20.3,28.7 20.3,40.4 39,21.7 	"/>
	<path class="st1" d="M20.3,3L39,21.7L20.3,40.4V28.7H3v-14h17.3V3 M20.3,0c-0.4,0-0.8,0.1-1.1,0.2c-1.1,0.5-1.9,1.6-1.9,2.8v8.7H3
		c-1.7,0-3,1.3-3,3v14c0,1.7,1.3,3,3,3h14.3v8.7c0,1.2,0.7,2.3,1.9,2.8c0.4,0.2,0.8,0.2,1.1,0.2c0.8,0,1.5-0.3,2.1-0.9l18.7-18.7
		c1.2-1.2,1.2-3.1,0-4.2L22.4,0.9C21.9,0.3,21.1,0,20.3,0L20.3,0z"/>
</g>
</svg>
