<?xml version="1.0" encoding="utf-8"?>
<!-- Generator: Adobe Illustrator 27.9.0, SVG Export Plug-In . SVG Version: 6.00 Build 0)  -->
<svg version="1.1" id="Layer_1" xmlns="http://www.w3.org/2000/svg" xmlns:xlink="http://www.w3.org/1999/xlink" x="0px" y="0px"
	 viewBox="0 0 54.6 57.1" style="enable-background:new 0 0 54.6 57.1;" xml:space="preserve">
<style type="text/css">
	.st0{fill:#FF08A7;}
	.st1{fill:#FFFFFF;}
</style>
<g>
	<polygon class="st0" points="37.3,29.8 37.3,3 17.3,3 17.3,29.8 3,29.8 27.3,54.1 51.6,29.8 	"/>
	<path class="st1" d="M37.3,3v26.8h14.3L27.3,54.1L3,29.8h14.3V3H37.3 M51.6,29.8L51.6,29.8 M37.3,0h-20c-1.7,0-3,1.3-3,3v23.8H3
		c-1.2,0-2.3,0.7-2.8,1.9S0,31,0.9,31.9l24.3,24.3c0.6,0.6,1.4,0.9,2.1,0.9s1.5-0.3,2.1-0.9l24.2-24.2c0.6-0.5,0.9-1.3,0.9-2.2
		c0-1.7-1.3-3-3-3h0H40.3V3C40.3,1.3,39,0,37.3,0L37.3,0z"/>
</g>
</svg>
