<?xml version="1.0" encoding="utf-8"?>
<!-- Generator: Adobe Illustrator 27.9.0, SVG Export Plug-In . SVG Version: 6.00 Build 0)  -->
<svg version="1.1" id="emoji" xmlns="http://www.w3.org/2000/svg" xmlns:xlink="http://www.w3.org/1999/xlink" x="0px" y="0px"
	 viewBox="0 0 60 60" style="enable-background:new 0 0 60 60;" xml:space="preserve">
<style type="text/css">
	.st0{fill:#D0CFCE;}
	.st1{fill:#FCEA2B;}
	.st2{fill:#FFFFFF;}
	.st3{fill:none;stroke:#000000;stroke-width:2;stroke-linecap:round;stroke-linejoin:round;stroke-miterlimit:10;}
	.st4{fill:none;stroke:#000000;stroke-width:1.696;stroke-linecap:round;stroke-linejoin:round;stroke-miterlimit:10;}
	.st5{fill:none;stroke:#000000;stroke-width:1.965;stroke-linecap:round;stroke-linejoin:round;stroke-miterlimit:10;}
</style>
<g id="color">
	<path class="st0" d="M29.7,58.8c4.8,0,7.5-2.2,8.2-5.2H21.6C22.2,56.6,24.9,58.8,29.7,58.8L29.7,58.8z"/>
	<path class="st1" d="M39.5,4.6c0,0-12.2-3.5-18.2,1.3c-6,4.7-7.7,15.6-7.7,15.6c0.6,2.2,4.2,8.5,4.2,8.5c0.5,0.9,2.3,8,3.2,11.9
		h17.2c0.9-2.8,4.3-13.6,4.8-14.7c0.6-1.4,1.6-4,2.1-5c1.2-2.4,0.5-4.5,0.5-7C45.7,9.5,43.8,7.3,39.5,4.6L39.5,4.6z"/>
	<path class="st2" d="M29.7,1.3c-8.5,0-16.5,6.8-16.5,15.3c0,1.1-0.3,4.5,1.2,4.5c0,0,2.4-7.8,8.4-12.5s15.5-3.7,15.5-3.7
		C37.6,2.8,32.8,1.3,29.7,1.3L29.7,1.3z"/>
</g>
<g id="hair">
</g>
<g id="skin">
</g>
<g id="skin-shadow">
</g>
<g id="line">
	<path class="st3" d="M46.5,17.9c0,4-1.8,5.9-3.8,10.5c-0.5,1.2-4.2,13.4-4.2,13.4H21.4c0,0-3-11.7-3.5-12.6
		c-2.4-4-4.4-6.9-4.4-11.3c0-9.1,7.4-16.5,16.5-16.5C39.1,1.3,46.5,8.8,46.5,17.9z"/>
	<line class="st3" x1="30" y1="41.4" x2="30" y2="29.4"/>
	<line class="st3" x1="36" y1="29.4" x2="24" y2="29.4"/>
	<path class="st4" d="M38.2,52.9c0,3.2-3.7,5.9-8.2,5.9s-8.2-2.6-8.2-5.9L38.2,52.9z"/>
	<line class="st5" x1="22" y1="49.1" x2="38" y2="45.7"/>
	<line class="st3" x1="32.2" y1="50.2" x2="38" y2="49"/>
	<line class="st3" x1="22" y1="45.7" x2="27.8" y2="44.6"/>
</g>
</svg>
