<?xml version="1.0" encoding="UTF-8"?>
<svg id="b" data-name="Characters" xmlns="http://www.w3.org/2000/svg" viewBox="0 0 61.611 220">
  <g>
    <ellipse cx="30.106" cy="214.342" rx="26.283" ry="5.658" opacity=".15" stroke-width="0"/>
    <circle cx="30.108" cy="94.411" r="17.178" fill="#e9dfb1" stroke="#231f20" stroke-miterlimit="10" stroke-width="3.543"/>
    <path d="m30.108,117.167c-2.701,0-19.689,0-19.689,23.18v25.955c0,1.125,1.283,2.037,2.865,2.037h33.648c1.583,0,2.865-.912,2.865-2.037v-25.955c0-23.18-16.988-23.18-19.689-23.18Z" fill="#878787" stroke="#231f20" stroke-miterlimit="10" stroke-width="3.543"/>
    <polyline points="19.498 168.339 19.459 214.342 12.929 214.342" fill="none" stroke="#000" stroke-linecap="round" stroke-linejoin="round" stroke-width="4.252"/>
    <polyline points="40.795 168.339 40.757 214.342 47.286 214.342" fill="none" stroke="#000" stroke-linecap="round" stroke-linejoin="round" stroke-width="4.252"/>
    <path d="m1.781,171.091c-.352-41.367,8.961-41.2,10.032-41.169" fill="none" stroke="#231f20" stroke-linecap="round" stroke-linejoin="round" stroke-width="3.543"/>
    <path d="m59.83,171.091c.352-41.367-8.961-41.2-10.032-41.169" fill="none" stroke="#231f20" stroke-linecap="round" stroke-linejoin="round" stroke-width="3.543"/>
    <path d="m33.877,77.233s-1.551,5.332-9.656,10.505-15.003,13.451-15.003,13.451c0,0,3.363-16.597,8.277-22.246,6.851-7.874,17.074-3.966,16.382-1.71Z" stroke="#231f20" stroke-linecap="round" stroke-linejoin="round" stroke-width="3.543"/>
    <path d="m47.819,100.827s2.373.094,1.467,3.354c-.906,3.26-4.378.643-4.378.643" fill="none" stroke="#231f20" stroke-linecap="round" stroke-linejoin="round" stroke-width="2"/>
  </g>
  <polygon points="13.284 168.339 8.065 201.989 47.286 180.304 46.932 168.339 13.284 168.339" fill="#ff3939" stroke="#231f20" stroke-linecap="round" stroke-linejoin="round" stroke-width="3.543"/>
</svg>