<?xml version="1.0" encoding="UTF-8"?>
<svg id="b" data-name="Characters" xmlns="http://www.w3.org/2000/svg" viewBox="0 0 65.876 220">
  <g>
    <ellipse cx="32.938" cy="214.342" rx="26.283" ry="5.658" opacity=".15" stroke-width="0"/>
    <circle cx="32.939" cy="94.411" r="17.178" fill="#b08d6c" stroke="#231f20" stroke-miterlimit="10" stroke-width="3.543"/>
    <path d="m32.939,117.294c-2.03,0-14.797-.001-14.797,25.22v28.239c0,1.224.964,2.216,2.153,2.216h25.287c1.189,0,2.153-.992,2.153-2.216v-28.239c0-25.22-12.767-25.22-14.797-25.22Z" fill="#ffd31c" stroke="#231f20" stroke-miterlimit="10" stroke-width="3.543"/>
    <polyline points="22.289 172.97 22.291 207.219 15.761 207.219" fill="none" stroke="#000" stroke-linecap="round" stroke-linejoin="round" stroke-width="4.252"/>
    <polyline points="43.587 172.97 43.588 207.549 50.118 207.549" fill="none" stroke="#000" stroke-linecap="round" stroke-linejoin="round" stroke-width="4.252"/>
    <path d="m8.993,171.091c-.352-41.367,8.961-41.2,10.032-41.169" fill="none" stroke="#231f20" stroke-linecap="round" stroke-linejoin="round" stroke-width="3.543"/>
    <path d="m56.886,171.091c.352-41.367-8.961-41.2-10.032-41.169" fill="none" stroke="#231f20" stroke-linecap="round" stroke-linejoin="round" stroke-width="3.543"/>
  </g>
  <circle cx="14.734" cy="212.606" r="1.735" fill="none" stroke="#9b3d99" stroke-linecap="round" stroke-linejoin="round" stroke-width="4.252"/>
  <circle cx="22.621" cy="212.606" r="1.735" fill="none" stroke="#9b3d99" stroke-linecap="round" stroke-linejoin="round" stroke-width="4.252"/>
  <circle cx="42.724" cy="213.176" r="1.735" fill="none" stroke="#9b3d99" stroke-linecap="round" stroke-linejoin="round" stroke-width="4.252"/>
  <circle cx="50.611" cy="213.176" r="1.735" fill="none" stroke="#9b3d99" stroke-linecap="round" stroke-linejoin="round" stroke-width="4.252"/>
  <path d="m27.785,124.912c0-6.077,1.114-7.745,5.193-7.745s5.032,1.668,5.032,7.745-.954,11.812-5.032,11.812-5.193-5.735-5.193-11.812Z" fill="#b08d6c" stroke="#231f20" stroke-miterlimit="10" stroke-width="2"/>
  <rect x="18.17" y="159.714" width="29.566" height="11.377" fill="#5c5cff" stroke="#231f20" stroke-miterlimit="10" stroke-width="2"/>
  <rect x="18.115" y="84.708" width="29.566" height="7.11" fill="#5c5cff" stroke="#231f20" stroke-miterlimit="10" stroke-width="2"/>
</svg>