<?xml version="1.0" encoding="UTF-8"?>
<svg id="b" data-name="Characters" xmlns="http://www.w3.org/2000/svg" viewBox="0 0 75.252 220">
  <g>
    <ellipse cx="37.626" cy="214.78" rx="26.283" ry="5.658" opacity=".15" stroke-width="0"/>
    <circle cx="37.628" cy="94.849" r="17.178" fill="#f8f1d3" stroke="#231f20" stroke-miterlimit="10" stroke-width="3.543"/>
    <path d="m37.628,118.11c-3.121,0-22.744-.001-22.744,31.272,2.209,10.939,2.288,9.399,3.092,12.109l-3.092,22.906c0,1.518,1.482,2.748,3.31,2.748,0,0,2.685-2.92,19.65-2.92s19.217,2.92,19.217,2.92c1.828,0,3.31-1.23,3.31-2.748l-3.791-22.708c1.228-3.374,2.317-3.951,3.791-12.307,0-31.272-19.623-31.272-22.744-31.272Z" fill="#f7637f" stroke="#231f20" stroke-miterlimit="10" stroke-width="3.543"/>
    <polyline points="26.979 187.145 26.979 214.78 20.449 214.78" fill="none" stroke="#000" stroke-linecap="round" stroke-linejoin="round" stroke-width="4.252"/>
    <polyline points="48.277 187.145 48.277 214.78 54.806 214.78" fill="none" stroke="#000" stroke-linecap="round" stroke-linejoin="round" stroke-width="4.252"/>
    <path d="m6.332,171.529c-.352-41.367,8.961-41.2,10.032-41.169" fill="none" stroke="#231f20" stroke-linecap="round" stroke-linejoin="round" stroke-width="3.543"/>
    <path d="m68.92,171.529c.352-41.367-8.961-41.2-10.032-41.169" fill="none" stroke="#231f20" stroke-linecap="round" stroke-linejoin="round" stroke-width="3.543"/>
  </g>
  <ellipse cx="52.592" cy="110.877" rx="4.233" ry="3.784" transform="translate(-28.366 18.652) rotate(-15.901)" fill="#ffd05c" stroke="#231f20" stroke-miterlimit="10" stroke-width="2"/>
  <ellipse cx="54.31" cy="118.02" rx="3.347" ry="4.087" transform="translate(-73.535 141.126) rotate(-75.534)" fill="#ffd05c" stroke="#231f20" stroke-miterlimit="10" stroke-width="2"/>
  <ellipse cx="52.23" cy="124.374" rx="3.347" ry="4.087" transform="translate(-79.096 155.204) rotate(-80.432)" fill="#ffd05c" stroke="#231f20" stroke-miterlimit="10" stroke-width="2"/>
  <ellipse cx="49.914" cy="130.556" rx="3.347" ry="4.087" transform="translate(-88.387 150.782) rotate(-77.398)" fill="#ffd05c" stroke="#231f20" stroke-miterlimit="10" stroke-width="2"/>
  <ellipse cx="47.226" cy="136.699" rx="3.347" ry="4.087" transform="translate(-96.483 152.962) rotate(-77.398)" fill="#ffd05c" stroke="#231f20" stroke-miterlimit="10" stroke-width="2"/>
  <path d="m40.687,84.099s1.423,6.695,5.844,6.139c4.509-.567,5.547,12.989,5.332,14.291,1.97.48,7.059-14.057-.427-20.583-4.243-3.699-8.536-5.357-8.536-5.357,0,0,.748,3.141-2.214,5.51Z" fill="#ffd05c" stroke="#231f20" stroke-linecap="round" stroke-linejoin="round" stroke-width="2"/>
  <path d="m23.052,78.589c-1.496-3.304.332-7.631,5.813-7.631s14.219,3.099,14.519,6.714c.391,4.721-4.67,9.432-10.408,7.484-3.815-1.295-8.574-3.583-9.924-6.568Z" fill="#ffd05c" stroke="#231f20" stroke-miterlimit="10" stroke-width="2"/>
</svg>