<?xml version="1.0" encoding="UTF-8"?>
<svg id="b" data-name="Characters" xmlns="http://www.w3.org/2000/svg" viewBox="0 0 283.657 157.064">
  <g>
    <ellipse cx="202.445" cy="151.279" rx="26.283" ry="5.658" opacity=".15" stroke-width="0"/>
    <path d="m202.447,54.433c-2.663,0-19.411-.001-19.411,28.451v22.665c0,7.049,4.709,15.226,19.411,15.226s19.411-7.441,19.411-15.226v-22.665c0-28.451-16.748-28.451-19.411-28.451Z" fill="#d4b292" stroke="#231f20" stroke-miterlimit="10" stroke-width="4.116"/>
    <polyline points="191.798 120.081 191.798 151.446 185.268 151.446" fill="none" stroke="#000" stroke-linecap="round" stroke-linejoin="round" stroke-width="4.252"/>
    <polyline points="213.096 120.081 213.096 151.446 219.625 151.446" fill="none" stroke="#000" stroke-linecap="round" stroke-linejoin="round" stroke-width="4.252"/>
    <path d="m177.444,108.028c-.352-41.367,6.753-41.204,7.825-41.173" fill="none" stroke="#231f20" stroke-linecap="round" stroke-linejoin="round" stroke-width="3.543"/>
    <path d="m227.526,108.028c.352-41.367-6.829-41.202-7.901-41.171" fill="none" stroke="#231f20" stroke-linecap="round" stroke-linejoin="round" stroke-width="3.543"/>
    <g>
      <g>
        <circle cx="189.797" cy="16.926" r="6.526" fill="#d4b292" stroke="#231f20" stroke-miterlimit="10" stroke-width="3.872"/>
        <circle cx="219.117" cy="18.641" r="6.526" fill="#d4b292" stroke="#231f20" stroke-miterlimit="10" stroke-width="3.872"/>
        <path d="m220.979,34.103c0,10.367-9.463,21.173-19.83,21.173-5.37,0-14.266-.103-18.932-5.18-2.836-3.086-3.855-7.083-2.366-11.472,1.037-3.056,4.389-4.652,4.389-6.426,0-10.367,7.602-16.865,17.969-16.865s18.771,8.404,18.771,18.771Z" fill="#d4b292" stroke="#231f20" stroke-miterlimit="10" stroke-width="3.872"/>
      </g>
      <ellipse cx="188.692" cy="43.477" rx="3.449" ry="3.219" fill="#231f20" stroke="#231f20" stroke-miterlimit="10" stroke-width="2.439"/>
    </g>
  </g>
  <g>
    <ellipse cx="142.92" cy="151.279" rx="26.283" ry="5.658" opacity=".15" stroke-width="0"/>
    <path d="m142.922,50.698c-2.663,0-19.411-.001-19.411,30.005v23.903c0,7.434,4.709,16.058,19.411,16.058s19.411-7.847,19.411-16.058v-23.903c0-30.005-16.748-30.005-19.411-30.005Z" fill="#998473" stroke="#231f20" stroke-miterlimit="10" stroke-width="4.116"/>
    <polyline points="132.273 120.081 132.273 151.446 125.743 151.446" fill="none" stroke="#000" stroke-linecap="round" stroke-linejoin="round" stroke-width="4.252"/>
    <polyline points="153.571 120.081 153.571 151.446 160.1 151.446" fill="none" stroke="#000" stroke-linecap="round" stroke-linejoin="round" stroke-width="4.252"/>
    <path d="m115.779,108.028c-.352-41.367,6.753-41.204,7.825-41.173" fill="none" stroke="#231f20" stroke-linecap="round" stroke-linejoin="round" stroke-width="3.543"/>
    <path d="m169.396,108.028c.352-41.367-6.829-41.202-7.901-41.171" fill="none" stroke="#231f20" stroke-linecap="round" stroke-linejoin="round" stroke-width="3.543"/>
    <g>
      <g>
        <circle cx="134.829" cy="8.584" r="6.526" fill="#998473" stroke="#231f20" stroke-miterlimit="10" stroke-width="4.116"/>
        <circle cx="159.633" cy="12.115" r="6.526" fill="#998473" stroke="#231f20" stroke-miterlimit="10" stroke-width="4.116"/>
        <path d="m161.495,27.355c0,10.367-9.463,21.173-19.83,21.173-5.37,0-14.266-.103-18.932-5.18-2.836-3.086-3.855-7.083-2.366-11.472,1.037-3.056,4.487-6.648,4.487-8.423,0-10.367,7.504-14.868,17.87-14.868s18.771,8.404,18.771,18.771Z" fill="#998473" stroke="#231f20" stroke-miterlimit="10" stroke-width="4.116"/>
      </g>
      <ellipse cx="132.656" cy="35.974" rx="3.449" ry="3.219" fill="#231f20" stroke="#231f20" stroke-miterlimit="10" stroke-width="4.116"/>
    </g>
  </g>
  <g>
    <ellipse cx="82.284" cy="151.405" rx="26.283" ry="5.658" opacity=".15" stroke-width="0"/>
    <path d="m83.361,72.943c-2.53,0-18.439,0-18.439,23.57v18.777c0,5.84,4.473,12.614,18.439,12.614s18.439-6.164,18.439-12.614v-18.777c0-23.57-15.909-23.57-18.439-23.57Z" fill="#998473" stroke="#231f20" stroke-miterlimit="10" stroke-width="4.116"/>
    <polyline points="71.637 125.819 71.637 151.929 65.107 151.929" fill="none" stroke="#000" stroke-linecap="round" stroke-linejoin="round" stroke-width="4.252"/>
    <polyline points="92.935 127.517 92.935 152.056 99.464 152.056" fill="none" stroke="#000" stroke-linecap="round" stroke-linejoin="round" stroke-width="4.252"/>
    <path d="m58.54,112.327c-.352-29.453,6.753-29.337,7.825-29.315" fill="none" stroke="#231f20" stroke-linecap="round" stroke-linejoin="round" stroke-width="3.543"/>
    <path d="m109.468,114.846c.352-29.453-6.829-29.336-7.901-29.313" fill="none" stroke="#231f20" stroke-linecap="round" stroke-linejoin="round" stroke-width="3.543"/>
    <g>
      <g>
        <circle cx="74.918" cy="44.49" r="5.418" fill="#998473" stroke="#231f20" stroke-miterlimit="10" stroke-width="4.116"/>
        <circle cx="95.51" cy="47.421" r="5.418" fill="#998473" stroke="#231f20" stroke-miterlimit="10" stroke-width="4.116"/>
        <path d="m97.056,60.074c0,8.607-7.857,17.578-16.463,17.578-4.458,0-11.844-.085-15.717-4.301-2.355-2.562-3.2-5.88-1.964-9.524.861-2.537,3.725-5.519,3.725-6.993,0-8.607,6.23-12.344,14.836-12.344s15.583,6.977,15.583,15.583Z" fill="#998473" stroke="#231f20" stroke-miterlimit="10" stroke-width="4.116"/>
      </g>
      <ellipse cx="73.114" cy="67.229" rx="2.863" ry="2.672" fill="#231f20" stroke="#231f20" stroke-miterlimit="10" stroke-width="4.116"/>
    </g>
  </g>
  <g>
    <ellipse cx="257.374" cy="151.405" rx="26.283" ry="5.658" opacity=".15" stroke-width="0"/>
    <path d="m258.45,72.943c-2.098,0-15.29,0-15.29,23.57v18.777c0,5.84,3.709,12.614,15.29,12.614s15.29-6.164,15.29-12.614v-18.777c0-23.57-13.192-23.57-15.29-23.57Z" fill="#826a57" stroke="#231f20" stroke-miterlimit="10" stroke-width="4.116"/>
    <polyline points="249.991 126.884 249.991 152.009 243.462 152.009" fill="none" stroke="#000" stroke-linecap="round" stroke-linejoin="round" stroke-width="4.252"/>
    <polyline points="268.024 127.517 268.024 152.056 274.554 152.056" fill="none" stroke="#000" stroke-linecap="round" stroke-linejoin="round" stroke-width="4.252"/>
    <path d="m236.291,115.082c-.352-29.453,6.753-29.337,7.825-29.315" fill="none" stroke="#231f20" stroke-linecap="round" stroke-linejoin="round" stroke-width="3.543"/>
    <path d="m280.6,115.081c.352-29.453-6.829-29.336-7.901-29.313" fill="none" stroke="#231f20" stroke-linecap="round" stroke-linejoin="round" stroke-width="3.543"/>
    <g>
      <g>
        <circle cx="250.008" cy="44.49" r="5.418" fill="#826a57" stroke="#231f20" stroke-miterlimit="10" stroke-width="4.116"/>
        <circle cx="270.6" cy="47.421" r="5.418" fill="#826a57" stroke="#231f20" stroke-miterlimit="10" stroke-width="4.116"/>
        <path d="m272.146,60.074c0,8.607-7.857,17.578-16.463,17.578-4.458,0-11.844-.085-15.717-4.301-2.355-2.562-3.2-5.88-1.964-9.524.861-2.537,3.725-5.519,3.725-6.993,0-8.607,6.23-12.344,14.836-12.344s15.583,6.977,15.583,15.583Z" fill="#826a57" stroke="#231f20" stroke-miterlimit="10" stroke-width="4.116"/>
      </g>
      <ellipse cx="248.203" cy="67.229" rx="2.863" ry="2.672" fill="#231f20" stroke="#231f20" stroke-miterlimit="10" stroke-width="4.116"/>
    </g>
  </g>
  <g>
    <ellipse cx="26.283" cy="151.405" rx="26.283" ry="5.658" opacity=".15" stroke-width="0"/>
    <path d="m27.36,79.473c-2.53,0-18.439,0-18.439,20.871v16.626c0,5.171,4.473,11.17,18.439,11.17s18.439-5.458,18.439-11.17v-16.626c0-20.871-15.909-20.871-18.439-20.871Z" fill="#d4b292" stroke="#231f20" stroke-miterlimit="10" stroke-width="4.116"/>
    <polyline points="15.636 125.819 15.636 151.929 9.106 151.929" fill="none" stroke="#000" stroke-linecap="round" stroke-linejoin="round" stroke-width="4.252"/>
    <polyline points="36.933 127.517 36.933 152.056 43.463 152.056" fill="none" stroke="#000" stroke-linecap="round" stroke-linejoin="round" stroke-width="4.252"/>
    <path d="m2.538,113.317c-.352-22.655,6.753-22.566,7.825-22.549" fill="none" stroke="#231f20" stroke-linecap="round" stroke-linejoin="round" stroke-width="3.543"/>
    <path d="m53.466,115.255c.352-22.655-6.829-22.565-7.901-22.548" fill="none" stroke="#231f20" stroke-linecap="round" stroke-linejoin="round" stroke-width="3.543"/>
    <g>
      <g>
        <circle cx="19.564" cy="50.685" r="5.418" fill="#d4b292" stroke="#231f20" stroke-miterlimit="10" stroke-width="4.116"/>
        <circle cx="40.156" cy="53.616" r="5.418" fill="#d4b292" stroke="#231f20" stroke-miterlimit="10" stroke-width="4.116"/>
        <path d="m41.702,66.269c0,8.607-7.857,17.578-16.463,17.578-4.458,0-11.844-.085-15.717-4.301-2.355-2.562-3.2-5.88-1.964-9.524.861-2.537,3.725-5.519,3.725-6.993,0-8.607,6.23-12.344,14.836-12.344s15.583,6.977,15.583,15.583Z" fill="#d4b292" stroke="#231f20" stroke-miterlimit="10" stroke-width="4.116"/>
      </g>
      <ellipse cx="17.76" cy="73.424" rx="2.863" ry="2.672" fill="#231f20" stroke="#231f20" stroke-miterlimit="10" stroke-width="4.116"/>
    </g>
  </g>
</svg>