<?xml version="1.0" encoding="UTF-8"?>
<svg id="b" data-name="Characters" xmlns="http://www.w3.org/2000/svg" viewBox="0 0 294.333 208.962">
  <g>
    <ellipse cx="28.991" cy="200.698" rx="26.283" ry="5.658" opacity=".15" stroke-width="0"/>
    <circle cx="28.992" cy="81.69" r="17.178" fill="#d4b292" stroke="#231f20" stroke-miterlimit="10" stroke-width="3.543"/>
    <path d="m28.992,105.91c-2.496,0-18.192-.037-18.192,25.586v31.006c0,1.344,1.185,2.433,2.648,2.433h31.089c1.462,0,2.648-1.089,2.648-2.433v-31.006c0-25.623-15.696-25.586-18.192-25.586Z" fill="#ff3939" stroke="#231f20" stroke-miterlimit="10" stroke-width="3.543"/>
    <polyline points="18.343 166.66 18.343 200.698 11.814 200.698" fill="none" stroke="#000" stroke-linecap="round" stroke-linejoin="round" stroke-width="4.252"/>
    <polyline points="39.641 166.66 39.641 200.698 46.171 200.698" fill="none" stroke="#000" stroke-linecap="round" stroke-linejoin="round" stroke-width="4.252"/>
    <path d="m1.781,161.995c-.352-41.367,8.961-41.2,10.032-41.169" fill="none" stroke="#231f20" stroke-linecap="round" stroke-linejoin="round" stroke-width="3.543"/>
    <path d="m56.203,160.704c.352-41.367-8.961-41.2-10.032-41.169" fill="none" stroke="#231f20" stroke-linecap="round" stroke-linejoin="round" stroke-width="3.543"/>
  </g>
  <g>
    <ellipse cx="80.459" cy="200.549" rx="26.283" ry="5.658" opacity=".15" stroke-width="0"/>
    <circle cx="80.421" cy="90.676" r="17.178" fill="#8a5d3b" stroke="#231f20" stroke-miterlimit="10" stroke-width="3.543"/>
    <path d="m80.46,113.713c-2.357,0-17.178-.001-17.178,26.294v29.441c0,1.276,1.119,2.31,2.5,2.31h29.357c1.381,0,2.5-1.034,2.5-2.31v-29.441c0-26.294-14.821-26.294-17.178-26.294Z" fill="#f7637f" stroke="#231f20" stroke-miterlimit="10" stroke-width="3.543"/>
    <polyline points="69.812 174.125 69.812 200.93 63.282 200.93" fill="none" stroke="#000" stroke-linecap="round" stroke-linejoin="round" stroke-width="4.252"/>
    <polyline points="91.109 174.125 91.109 200.93 97.639 200.93" fill="none" stroke="#000" stroke-linecap="round" stroke-linejoin="round" stroke-width="4.252"/>
    <path d="m55.907,160.215c-.352-38.089,8.961-37.935,10.032-37.906" fill="none" stroke="#231f20" stroke-linecap="round" stroke-linejoin="round" stroke-width="3.543"/>
    <path d="m105.99,160.215c.352-38.089-8.961-37.935-10.032-37.906" fill="none" stroke="#231f20" stroke-linecap="round" stroke-linejoin="round" stroke-width="3.543"/>
  </g>
  <g>
    <ellipse cx="146.695" cy="200.549" rx="26.283" ry="5.658" opacity=".15" stroke-width="0"/>
    <path d="m146.696,103.703c-2.825,0-20.588-.001-20.588,28.451v31.857c0,1.381,1.341,2.5,2.996,2.5h35.184c1.655,0,2.996-1.119,2.996-2.5v-31.857c0-28.451-17.763-28.451-20.588-28.451Z" fill="#5767ff" stroke="#231f20" stroke-miterlimit="10" stroke-width="3.543"/>
    <polyline points="136.047 167.57 136.047 200.611 129.518 200.611" fill="none" stroke="#000" stroke-linecap="round" stroke-linejoin="round" stroke-width="4.252"/>
    <polyline points="157.345 167.57 157.345 200.611 163.874 200.611" fill="none" stroke="#000" stroke-linecap="round" stroke-linejoin="round" stroke-width="4.252"/>
    <path d="m119.399,137.356c-12.201,1.468,6.234-19.133,7.306-19.101" fill="none" stroke="#231f20" stroke-linecap="round" stroke-linejoin="round" stroke-width="3.543"/>
    <path d="m126.108,132.154c46.87,21.414,41.728-13.18,40.656-13.149" fill="none" stroke="#231f20" stroke-linecap="round" stroke-linejoin="round" stroke-width="3.543"/>
  </g>
  <path d="m13.813,73.646l31.333,2.189s-2.806-10.328-16.154-11.324c-12.351-.922-15.179,9.135-15.179,9.135Z" fill="#ff50ff" stroke="#231f20" stroke-miterlimit="10" stroke-width="3.543"/>
  <path d="m13.464,74.335c0,.707-1.974.603-3.071,3.518s1.07,5.995,11.131,7.109c13.212,1.463,19.793-2.139,23.915-8.241" fill="#ff50ff" stroke="#231f20" stroke-miterlimit="10" stroke-width="3.543"/>
  <path d="m90.79,116.918s-3.288,1.335-10.368,1.335-10.421-1.335-10.421-1.335c-2.921-3.598-2.508-7.559,0-11.747,0,0,4.982,1.118,10.46,1.21s10.329-1.21,10.329-1.21c2.251,4.017,2.375,7.938,0,11.747Z" fill="#ffd400" stroke="#231f20" stroke-miterlimit="10" stroke-width="3.543"/>
  <path d="m72.532,117.58s-1.882,2.373-1.742,5.722c.056,1.347.375,3.518.736,5.634.307,1.798,2.782,2.058,3.447.359.47-3.574,6.702-7.387,9.065-11.169-3.829.343-7.664.198-11.507-.547Z" fill="#ffd400" stroke="#231f20" stroke-miterlimit="10" stroke-width="3.543"/>
  <g>
    <path d="m192.295,112.855s-3.802,9.624-2.168,11.268c1.634,1.645,36.778.832,36.778.832,0,0,.023-10.612-5.419-12.519-7.141-2.502-28.243,2.83-29.191.419Z" fill="#f9ec00" stroke="#231f20" stroke-miterlimit="10" stroke-width="3.543"/>
    <g>
      <ellipse cx="207.304" cy="203.244" rx="26.283" ry="5.658" opacity=".15" stroke-width="0"/>
      <circle cx="207.306" cy="104.499" r="17.178" fill="#b08d6c" stroke="#231f20" stroke-miterlimit="10" stroke-width="3.543"/>
      <path d="m207.304,127.903c-1.946,0-14.182,0-14.182,20.264v22.69c0,.983.924,1.781,2.064,1.781h24.236c1.14,0,2.064-.797,2.064-1.781v-22.69c0-20.264-12.236-20.264-14.182-20.264Z" fill="#f4a211" stroke="#231f20" stroke-miterlimit="10" stroke-width="3.543"/>
      <polyline points="196.657 174.455 196.657 203.552 190.127 203.552" fill="none" stroke="#000" stroke-linecap="round" stroke-linejoin="round" stroke-width="4.252"/>
      <polyline points="217.955 174.455 217.955 203.552 224.484 203.552" fill="none" stroke="#000" stroke-linecap="round" stroke-linejoin="round" stroke-width="4.252"/>
      <path d="m215.87,157.3c-48.069,14.459-24.646-18.33-23.574-18.308" fill="none" stroke="#231f20" stroke-linecap="round" stroke-linejoin="round" stroke-width="3.543"/>
      <path d="m222.577,157.3c21.827,2.914.808-18.33-.264-18.308" fill="none" stroke="#231f20" stroke-linecap="round" stroke-linejoin="round" stroke-width="3.543"/>
    </g>
    <path d="m199.213,96.532c2.938-3.345,14.813-8.837,14.813-8.837,0,0-7.689-9.349-18.469-2.73s-7.604,17.538-7.604,17.538c0,0,8.321-2.627,11.26-5.972Z" fill="#f9ec00" stroke="#231f20" stroke-miterlimit="10" stroke-width="3.543"/>
    <path d="m223.398,92.569c-1.961-3.168-5.715-4.359-8.701-4.789-1.968-.283-3.454,1.751-2.621,3.556,1.222,2.648,2.808,6.202,3.841,8.96,1.075,2.872,4.362,4.303,6.984,5.003,1.753.468,3.412-.992,3.159-2.788-.448-3.176-1.294-7.732-2.662-9.941Z" fill="#f9ec00" stroke="#231f20" stroke-miterlimit="10" stroke-width="3.543"/>
  </g>
  <path d="m135.874,107.854c2.994,2.89,10.777,9.601,10.777,9.601,0,0,7.561-5.053,10.541-8.763,2.179-2.713-3.297-4.989-10.496-4.989s-13.326,1.735-10.822,4.151Z" fill="#d4b292" stroke="#231f20" stroke-miterlimit="10" stroke-width="3.543"/>
  <polygon points="135.874 107.854 131.038 111.8 142.83 122.306 146.651 117.455 135.874 107.854" fill="#5767ff" stroke="#231f20" stroke-miterlimit="10" stroke-width="3.543"/>
  <polygon points="157.192 108.692 146.651 117.455 150.729 122.663 161.637 112.906 157.192 108.692" fill="#5767ff" stroke="#231f20" stroke-miterlimit="10" stroke-width="3.543"/>
  <g>
    <g>
      <ellipse cx="266.279" cy="203.303" rx="26.283" ry="5.658" opacity=".15" stroke-width="0"/>
      <circle cx="266.279" cy="71.987" r="17.178" fill="#f8f1d3" stroke="#231f20" stroke-miterlimit="10" stroke-width="3.543"/>
      <path d="m266.279,95.091c-2.357,0-17.178-.001-17.178,27.987v31.337c0,1.358,1.119,2.459,2.5,2.459h29.357c1.381,0,2.5-1.101,2.5-2.459v-31.337c0-27.987-14.821-27.987-17.178-27.987Z" fill="#ea734e" stroke="#231f20" stroke-miterlimit="10" stroke-width="3.543"/>
      <polyline points="255.631 157.605 255.631 202.627 249.102 202.627" fill="none" stroke="#000" stroke-linecap="round" stroke-linejoin="round" stroke-width="4.252"/>
      <polyline points="276.929 157.605 276.929 202.627 283.459 202.627" fill="none" stroke="#000" stroke-linecap="round" stroke-linejoin="round" stroke-width="4.252"/>
      <path d="m240.005,155.082c-.352-47.381,8.961-47.19,10.032-47.154" fill="none" stroke="#231f20" stroke-linecap="round" stroke-linejoin="round" stroke-width="3.543"/>
      <path d="m292.552,155.082c.352-47.381-8.961-47.19-10.032-47.154" fill="none" stroke="#231f20" stroke-linecap="round" stroke-linejoin="round" stroke-width="3.543"/>
    </g>
    <path d="m267.666,60.195c-4.39-.169-11.264.096-11.922-3.685s7.831-11.175,9.103-13.036,4.864,12.047,7.302,12.365c2.371.309,6.566,4.498,7.432,5.281,2.954,2.67,6.229,10.378-3.265,9.907-4.056-.201-8.65-10.831-8.65-10.831Z" fill="#af533a" stroke="#231f20" stroke-miterlimit="10" stroke-width="3.543"/>
    <rect x="249.103" y="134.827" width="34.355" height="6.068" fill="#fff" stroke="#231f20" stroke-miterlimit="10" stroke-width="3.543"/>
    <rect x="249.101" y="122.383" width="34.355" height="6.068" fill="#fff" stroke="#231f20" stroke-miterlimit="10" stroke-width="3.543"/>
  </g>
  <g>
    <g>
      <rect x="62.716" y="7.469" width="106.188" height="66.381" transform="translate(-3.701 12.69) rotate(-6.173)" fill="#f0ff2c" stroke="#000" stroke-miterlimit="10" stroke-width="3.543"/>
      <g>
        <path d="m92.803,47.111c-4.023-9.934,8.361-20.423,21.248-21.817s28.033,6.374,25.422,16.769c-2.818,11.218-8.361,20.423-21.248,21.817-12.888,1.394-20.603-4.868-25.422-16.769Z" fill="#5300c9" stroke="#5300c9" stroke-miterlimit="10" stroke-width="4.116"/>
        <circle cx="97.374" cy="27.806" r="6.621" fill="#5300c9" stroke="#5300c9" stroke-miterlimit="10" stroke-width="4.116"/>
        <circle cx="130.879" cy="24.182" r="6.621" fill="#5300c9" stroke="#5300c9" stroke-miterlimit="10" stroke-width="4.116"/>
      </g>
      <g>
        <polygon points="120.654 50.397 125.37 49.887 123.781 57.247 120.654 50.397" fill="#f0ff2c" stroke-width="0"/>
        <polygon points="107.141 51.858 111.857 51.348 110.268 58.709 107.141 51.858" fill="#f0ff2c" stroke-width="0"/>
        <polygon points="111.857 51.348 116.256 50.873 114.48 55.028 111.857 51.348" fill="#f0ff2c" stroke-width="0"/>
        <g>
          <polygon points="115.442 62.112 111.044 62.588 112.82 58.433 115.442 62.112" fill="#f0ff2c" stroke-width="0"/>
          <polygon points="124.045 61.182 119.647 61.658 121.423 57.503 124.045 61.182" fill="#f0ff2c" stroke-width="0"/>
          <polygon points="118.306 61.802 113.908 62.278 115.895 60.081 118.306 61.802" fill="#f0ff2c" stroke-width="0"/>
          <polygon points="121.187 61.491 116.789 61.966 118.776 59.77 121.187 61.491" fill="#f0ff2c" stroke-width="0"/>
        </g>
        <polygon points="116.256 50.873 120.654 50.397 118.879 54.552 116.256 50.873" fill="#f0ff2c" stroke-width="0"/>
      </g>
      <path d="m110.691,44.758c-1.453-1.24,2.006-1.819,4.692-2.11s6.066-.648,5.035,1.058-1.917,2.646-4.603,2.937-3.671-.644-5.124-1.884Z" fill="#f0ff2c" stroke-width="0"/>
    </g>
    <rect x="119.296" y="73.166" width="10.673" height="68.481" transform="translate(-10.828 14.026) rotate(-6.173)" fill="#f0ff2c" stroke="#000" stroke-miterlimit="10" stroke-width="3.543"/>
  </g>
  <circle cx="146.696" cy="81.54" r="17.178" fill="#d4b292" stroke="#231f20" stroke-miterlimit="10" stroke-width="3.543"/>
  <g>
    <rect x="215.87" y="23.972" width="6.707" height="133.329" fill="#f8f1d3" stroke="#000" stroke-miterlimit="10" stroke-width="3"/>
    <rect x="185.433" y="27.799" width="68.411" height="45.027" fill="#f8f1d3" stroke="#000" stroke-miterlimit="10" stroke-width="3"/>
  </g>
  <g>
    <circle cx="217.955" cy="51.348" r="14.816" fill="none" stroke="#ff0013" stroke-miterlimit="10" stroke-width="7"/>
    <line x1="207.306" y1="61.144" x2="229.487" y2="41.552" fill="none" stroke="#ff0013" stroke-miterlimit="10" stroke-width="7"/>
  </g>
  <g>
    <path d="m139.996,85.629h-3.112c-1.209,0-3.101-2.178-3.101-3.394v-2.809c0-1.216.98-2.201,2.188-2.201h5.347c1.209,0,2.188.986,2.188,2.201v2.809c0,1.216-2.302,3.394-3.51,3.394Z" fill="none" stroke="#231f20" stroke-linecap="round" stroke-linejoin="round" stroke-width="2"/>
    <path d="m152.178,85.856h3.112c1.209,0,3.101-2.178,3.101-3.394v-2.809c0-1.216-.98-2.201-2.188-2.201h-5.347c-1.209,0-2.188.986-2.188,2.201v1.404s0,1.404,0,1.404c0,1.216,2.302,3.394,3.51,3.394Z" fill="none" stroke="#231f20" stroke-linecap="round" stroke-linejoin="round" stroke-width="2"/>
    <line x1="147.586" y1="80.906" x2="143.766" y2="80.906" fill="none" stroke="#231f20" stroke-linecap="round" stroke-linejoin="round" stroke-width="2"/>
  </g>
</svg>