<?xml version="1.0" encoding="UTF-8"?>
<svg id="b" data-name="Characters" xmlns="http://www.w3.org/2000/svg" viewBox="0 0 53.645 220">
  <g>
    <ellipse cx="26.783" cy="214.342" rx="26.283" ry="5.658" opacity=".15" stroke-width="0"/>
    <circle cx="26.784" cy="94.411" r="17.178" fill="#d4b292" stroke="#231f20" stroke-miterlimit="10" stroke-width="3.543"/>
    <path d="m26.595,123.008c-.677,0-2.194-5.513-4.282-4.838-5.179,1.673-12.708,7.498-12.708,27.777v31.857c0,1.381,1.119,2.5,2.5,2.5h29.357c1.381,0,2.5-1.119,2.5-2.5v-31.857c0-21.971-8.838-26.975-13.95-28.115-1.508-.336-2.88,5.176-3.417,5.176Z" fill="#fff" stroke="#231f20" stroke-miterlimit="10" stroke-width="3.543"/>
    <polyline points="16.135 180.304 16.135 214.342 9.606 214.342" fill="none" stroke="#000" stroke-linecap="round" stroke-linejoin="round" stroke-width="4.252"/>
    <polyline points="37.433 180.304 37.433 214.342 43.963 214.342" fill="none" stroke="#000" stroke-linecap="round" stroke-linejoin="round" stroke-width="4.252"/>
    <path d="m1.781,171.091c-.352-41.367,8.961-41.2,10.032-41.169" fill="none" stroke="#231f20" stroke-linecap="round" stroke-linejoin="round" stroke-width="3.543"/>
    <path d="m51.864,171.091c.352-41.367-8.961-41.2-10.032-41.169" fill="none" stroke="#231f20" stroke-linecap="round" stroke-linejoin="round" stroke-width="3.543"/>
  </g>
  <path d="m20.996,98.891h-4.809c-1.087,0-1.968-.881-1.968-1.968v-2.511c0-1.087.881-1.968,1.968-1.968h4.809c1.087,0,1.968.881,1.968,1.968v2.511c0,1.087-.881,1.968-1.968,1.968Z" fill="#99e0ff" stroke="#5300c9" stroke-linecap="round" stroke-linejoin="round" stroke-width="2"/>
  <rect x="26.784" y="92.443" width="8.745" height="6.448" rx="1.968" ry="1.968" fill="#99e0ff" stroke="#5300c9" stroke-linecap="round" stroke-linejoin="round" stroke-width="2"/>
  <line x1="26.784" y1="95.667" x2="22.965" y2="95.667" fill="#99e0ff" stroke="#5300c9" stroke-linecap="round" stroke-linejoin="round" stroke-width="2"/>
  <polyline points="16.834 121.501 22.665 128.071 26.595 123.008 30.904 128.768 36.738 121.501" fill="none" stroke="#231f20" stroke-linecap="round" stroke-linejoin="round" stroke-width="2"/>
  <polygon points="25.766 149.06 26.149 172.051 12.106 180.304 9.606 177.804 10.479 135.182 16.834 123.246 25.766 149.06" fill="#a8a8a8" stroke="#231f20" stroke-linecap="round" stroke-linejoin="round" stroke-width="2"/>
  <polygon points="26.823 149.06 26.149 172.051 40.482 180.304 42.982 177.804 42.109 135.182 35.754 123.246 26.823 149.06" fill="#a8a8a8" stroke="#231f20" stroke-linecap="round" stroke-linejoin="round" stroke-width="2"/>
  <polyline points="26.935 154.124 15.187 134.071 16.834 123.246" fill="none" stroke="#231f20" stroke-linecap="round" stroke-linejoin="round" stroke-width="2"/>
  <polyline points="26.149 154.124 37.897 134.071 36.25 123.246" fill="none" stroke="#231f20" stroke-linecap="round" stroke-linejoin="round" stroke-width="2"/>
  <path d="m8.677,86.681s6.152,6.77,12.384.701c6.232-6.069,10.962-9.333,10.962-9.333,0,0-2.276-9.634-11.216-7.864-8.94,1.77-12.13,16.496-12.13,16.496Z" fill="#fff" stroke="#231f20" stroke-linecap="round" stroke-linejoin="round" stroke-width="2"/>
  <path d="m26.935,82.044s4.385-5.971,6.827-6.477,13.089,1.763,12.497,11.12-2.296,11.174-2.296,11.174c0,0-4.659-14.452-9.397-15.537s-7.63-.28-7.63-.28Z" fill="#fff" stroke="#231f20" stroke-linecap="round" stroke-linejoin="round" stroke-width="2"/>
</svg>