<?xml version="1.0" encoding="UTF-8"?>
<svg id="b" data-name="Characters" xmlns="http://www.w3.org/2000/svg" viewBox="0 0 110.019 220">
  <g>
    <ellipse cx="83.137" cy="214.538" rx="26.283" ry="5.658" opacity=".15" stroke-width="0"/>
    <circle cx="83.1" cy="98.279" r="17.178" fill="#f8f1d3" stroke="#231f20" stroke-miterlimit="10" stroke-width="3.543"/>
    <path d="m83.1,123.637c-2.357,0-17.178-.001-17.178,25.556v28.616c0,1.24,1.119,2.246,2.5,2.246h29.357c1.381,0,2.5-1.005,2.5-2.246v-28.616c0-25.556-14.821-25.556-17.178-25.556Z" fill="#6f98d1" stroke="#231f20" stroke-miterlimit="10" stroke-width="3.543"/>
    <polyline points="72.489 180.5 72.489 214.538 65.96 214.538" fill="none" stroke="#000" stroke-linecap="round" stroke-linejoin="round" stroke-width="4.252"/>
    <polyline points="93.787 180.5 93.787 214.538 100.317 214.538" fill="none" stroke="#000" stroke-linecap="round" stroke-linejoin="round" stroke-width="4.252"/>
    <path d="m58.059,172.431c-.352-41.367,8.961-41.2,10.032-41.169" fill="none" stroke="#231f20" stroke-linecap="round" stroke-linejoin="round" stroke-width="3.543"/>
    <path d="m108.141,172.431c.352-41.367-8.961-41.2-10.032-41.169" fill="none" stroke="#231f20" stroke-linecap="round" stroke-linejoin="round" stroke-width="3.543"/>
  </g>
  <g>
    <ellipse cx="83.137" cy="214.538" rx="26.283" ry="5.658" opacity=".15" stroke-width="0"/>
    <circle cx="83.1" cy="98.279" r="17.178" fill="#f8f1d3" stroke="#231f20" stroke-miterlimit="10" stroke-width="3.543"/>
    <path d="m83.1,123.637c-2.357,0-17.178-.001-17.178,25.556v28.616c0,1.24,1.119,2.246,2.5,2.246h29.357c1.381,0,2.5-1.005,2.5-2.246v-28.616c0-25.556-14.821-25.556-17.178-25.556Z" fill="#6f98d1" stroke="#231f20" stroke-miterlimit="10" stroke-width="3.543"/>
    <polyline points="72.489 180.5 72.489 214.538 65.96 214.538" fill="none" stroke="#000" stroke-linecap="round" stroke-linejoin="round" stroke-width="4.252"/>
    <polyline points="93.787 180.5 93.787 214.538 100.317 214.538" fill="none" stroke="#000" stroke-linecap="round" stroke-linejoin="round" stroke-width="4.252"/>
    <path d="m58.059,172.431c-.352-41.367,8.961-41.2,10.032-41.169" fill="none" stroke="#231f20" stroke-linecap="round" stroke-linejoin="round" stroke-width="3.543"/>
    <path d="m108.141,172.431c.352-41.367-8.961-41.2-10.032-41.169" fill="none" stroke="#231f20" stroke-linecap="round" stroke-linejoin="round" stroke-width="3.543"/>
  </g>
  <g>
    <g>
      <path d="m100.226,92.955l5.666-4.474c.62-.49.571-1.454-.105-1.864-3.107-1.882-5.698-4.09-7.728-6.654-.145-.183-.34-.315-.565-.377-4.699-1.311-9.328-3.065-13.879-5.308-.332-.164-.719-.153-1.042.026-3.858,2.144-8.203,3.678-12.995,4.652-.26.053-.494.199-.657.408-2.478,3.173-5.32,5.566-8.464,7.311-.713.396-.787,1.388-.145,1.89l5.616,4.386c.494.386,1.211.308,1.596-.187,1.579-2.031,6.206-6.684,15.452-6.684s14.04,4.686,15.661,6.706c.389.485,1.101.555,1.589.169Z" fill="#425ccc" stroke="#231f20" stroke-miterlimit="10" stroke-width="3.543"/>
      <path d="m83.095,96.916c12.944,0,11.82-2.679,14.184-3.571.693-.262.866-1.149.332-1.664-1.975-1.904-6.817-5.601-14.636-5.601-7.69,0-12.719,3.774-14.873,5.811-.599.566-.364,1.566.425,1.805,2.619.795,1.625,3.22,14.569,3.22Z" fill="#231f20" stroke="#231f20" stroke-linecap="round" stroke-miterlimit="10" stroke-width="3.543"/>
      <path d="m68.076,90.566s4.388-5.132,15.193-5.132c11.004,0,14.846,4.969,14.846,4.969" fill="none" stroke="#fff" stroke-linecap="square" stroke-miterlimit="10" stroke-width="3"/>
    </g>
    <path d="m81.184,78.956c0-1.058.858-1.916,1.916-1.916s1.916.858,1.916,1.916-.858,2.617-1.916,2.617-1.916-1.559-1.916-2.617Z" fill="#f9ec00" stroke-width="0"/>
  </g>
  <g>
    <g>
      <path d="m100.226,92.955l5.666-4.474c.62-.49.571-1.454-.105-1.864-3.107-1.882-5.698-4.09-7.728-6.654-.145-.183-.34-.315-.565-.377-4.699-1.311-9.328-3.065-13.879-5.308-.332-.164-.719-.153-1.042.026-3.858,2.144-8.203,3.678-12.995,4.652-.26.053-.494.199-.657.408-2.478,3.173-5.32,5.566-8.464,7.311-.713.396-.787,1.388-.145,1.89l5.616,4.386c.494.386,1.211.308,1.596-.187,1.579-2.031,6.206-6.684,15.452-6.684s14.04,4.686,15.661,6.706c.389.485,1.101.555,1.589.169Z" fill="#425ccc" stroke="#231f20" stroke-miterlimit="10" stroke-width="3.543"/>
      <path d="m83.095,96.916c12.944,0,11.82-2.679,14.184-3.571.693-.262.866-1.149.332-1.664-1.975-1.904-6.817-5.601-14.636-5.601-7.69,0-12.719,3.774-14.873,5.811-.599.566-.364,1.566.425,1.805,2.619.795,1.625,3.22,14.569,3.22Z" fill="#231f20" stroke="#231f20" stroke-linecap="round" stroke-miterlimit="10" stroke-width="3.543"/>
      <path d="m68.076,90.566s4.388-5.132,15.193-5.132c11.004,0,14.846,4.969,14.846,4.969" fill="none" stroke="#fff" stroke-linecap="square" stroke-miterlimit="10" stroke-width="3"/>
    </g>
    <path d="m81.184,78.956c0-1.058.858-1.916,1.916-1.916s1.916.858,1.916,1.916-.858,2.617-1.916,2.617-1.916-1.559-1.916-2.617Z" fill="#f9ec00" stroke-width="0"/>
  </g>
  <g>
    <path d="m75.315,121.12l6.859,1.286c.545.102.898.633.782,1.176l-.932,4.348c-.117.546-.664.886-1.206.749l-8.574-2.173c-.686-.174-.971-.992-.541-1.554l2.647-3.461c.226-.296.599-.439.965-.37Z" fill="#6f98d1" stroke="#231f20" stroke-linejoin="round" stroke-width="3"/>
    <path d="m91.457,121.12l-6.859,1.286c-.545.102-.898.633-.782,1.176l.932,4.348c.117.546.664.886,1.206.749l8.574-2.173c.686-.174.971-.992.541-1.554l-2.647-3.461c-.226-.296-.599-.439-.965-.37Z" fill="#6f98d1" stroke="#231f20" stroke-linejoin="round" stroke-width="3"/>
    <polygon points="82.957 123.581 80.819 128.678 81.47 169.533 83.794 169.533 85.953 128.678 82.957 123.581" fill="#231f20" stroke="#231f20" stroke-linejoin="round" stroke-width="3"/>
  </g>
  <g>
    <path d="m75.315,121.12l6.859,1.286c.545.102.898.633.782,1.176l-.932,4.348c-.117.546-.664.886-1.206.749l-8.574-2.173c-.686-.174-.971-.992-.541-1.554l2.647-3.461c.226-.296.599-.439.965-.37Z" fill="#6f98d1" stroke="#231f20" stroke-linejoin="round" stroke-width="3"/>
    <path d="m91.457,121.12l-6.859,1.286c-.545.102-.898.633-.782,1.176l.932,4.348c.117.546.664.886,1.206.749l8.574-2.173c.686-.174.971-.992.541-1.554l-2.647-3.461c-.226-.296-.599-.439-.965-.37Z" fill="#6f98d1" stroke="#231f20" stroke-linejoin="round" stroke-width="3"/>
    <polygon points="82.957 123.581 80.819 128.678 81.47 169.533 83.794 169.533 85.953 128.678 82.957 123.581" fill="#231f20" stroke="#231f20" stroke-linejoin="round" stroke-width="3"/>
  </g>
  <path d="m65.96,169.533h34.357s-1.252-35.354-3.163-37.97c-1.082-1.482-2.626-3.771-2.626-3.771l-4.004,12.034h-14.533l-3.745-12.034s-3.144,3.959-4.194,6.286c-1.049,2.327-2.091,35.455-2.091,35.455Z" fill="#231f20" stroke="#231f20" stroke-linejoin="round" stroke-width="3"/>
  <path d="m65.96,169.533h34.357s-1.252-35.354-3.163-37.97c-1.082-1.482-2.626-3.771-2.626-3.771l-4.004,12.034h-14.533l-3.745-12.034s-3.144,3.959-4.194,6.286c-1.049,2.327-2.091,35.455-2.091,35.455Z" fill="#231f20" stroke="#231f20" stroke-linejoin="round" stroke-width="3"/>
  <rect x="68.162" y="142.403" width="12.457" height="4.479" fill="#53525e" stroke-width="0"/>
  <rect x="68.162" y="142.403" width="12.457" height="4.479" fill="#53525e" stroke-width="0"/>
  <rect x="69.005" y="151.193" width="10.478" height="5.685" fill="#53525e" stroke-width="0"/>
  <rect x="69.005" y="151.193" width="10.478" height="5.685" fill="#53525e" stroke-width="0"/>
  <rect x="86.073" y="142.236" width="12.457" height="4.479" fill="#53525e" stroke-width="0"/>
  <rect x="86.073" y="142.236" width="12.457" height="4.479" fill="#53525e" stroke-width="0"/>
  <rect x="86.916" y="151.061" width="10.478" height="5.685" fill="#53525e" stroke-width="0"/>
  <rect x="86.916" y="151.061" width="10.478" height="5.685" fill="#53525e" stroke-width="0"/>
  <rect x="70.021" y="143.678" width="8.739" height="1.929" fill="#d1d1d3" stroke-width="0"/>
  <rect x="70.021" y="143.678" width="8.739" height="1.929" fill="#d1d1d3" stroke-width="0"/>
  <rect x="93.718" y="168.861" width="8.781" height="4.285" fill="#231f20" stroke="#231f20" stroke-linejoin="round" stroke-width="3"/>
  <rect x="93.718" y="168.861" width="8.781" height="4.285" fill="#231f20" stroke="#231f20" stroke-linejoin="round" stroke-width="3"/>
  <rect x="63.07" y="164.284" width="4.717" height="10.498" fill="#231f20" stroke="#231f20" stroke-linejoin="round" stroke-width="3"/>
  <rect x="63.07" y="164.284" width="4.717" height="10.498" fill="#231f20" stroke="#231f20" stroke-linejoin="round" stroke-width="3"/>
  <g>
    <ellipse cx="26.783" cy="214.342" rx="26.283" ry="5.658" opacity=".15" stroke-width="0"/>
    <circle cx="26.784" cy="94.411" r="17.178" fill="#f8f1d3" stroke="#231f20" stroke-miterlimit="10" stroke-width="3.543"/>
    <path d="m26.784,117.496c-2.357,0-17.178-.001-17.178,28.451v31.857c0,1.381,1.119,2.5,2.5,2.5h29.357c1.381,0,2.5-1.119,2.5-2.5v-31.857c0-28.451-14.821-28.451-17.178-28.451Z" fill="#6f98d1" stroke="#231f20" stroke-miterlimit="10" stroke-width="3.543"/>
    <polyline points="16.135 180.304 16.135 214.342 9.606 214.342" fill="none" stroke="#000" stroke-linecap="round" stroke-linejoin="round" stroke-width="4.252"/>
    <polyline points="37.433 180.304 37.433 214.342 43.963 214.342" fill="none" stroke="#000" stroke-linecap="round" stroke-linejoin="round" stroke-width="4.252"/>
    <path d="m1.781,171.091c-.352-41.367,8.961-41.2,10.032-41.169" fill="none" stroke="#231f20" stroke-linecap="round" stroke-linejoin="round" stroke-width="3.543"/>
    <path d="m51.864,171.091c.352-41.367-8.961-41.2-10.032-41.169" fill="none" stroke="#231f20" stroke-linecap="round" stroke-linejoin="round" stroke-width="3.543"/>
  </g>
  <g>
    <path d="m18.884,115.837l6.859,1.286c.545.102.898.633.782,1.176l-.932,4.348c-.117.546-.664.886-1.206.749l-8.574-2.173c-.686-.174-.971-.992-.541-1.554l2.647-3.461c.226-.296.599-.439.965-.37Z" fill="#6f98d1" stroke="#231f20" stroke-linejoin="round" stroke-width="3"/>
    <path d="m35.026,115.837l-6.859,1.286c-.545.102-.898.633-.782,1.176l.932,4.348c.117.546.664.886,1.206.749l8.574-2.173c.686-.174.971-.992.541-1.554l-2.647-3.461c-.226-.296-.599-.439-.965-.37Z" fill="#6f98d1" stroke="#231f20" stroke-linejoin="round" stroke-width="3"/>
    <polygon points="26.526 118.298 24.388 123.395 25.039 164.25 27.363 164.25 29.523 123.395 26.526 118.298" fill="#231f20" stroke="#231f20" stroke-linejoin="round" stroke-width="3"/>
  </g>
  <path d="m9.369,166.469h34.357s-1.093-38.86-3.003-41.476c-1.082-1.482-2.626-3.771-2.626-3.771l-4.004,12.034h-14.533l-3.745-12.034s-3.144,3.959-4.194,6.286c-1.049,2.327-2.251,38.961-2.251,38.961Z" fill="#231f20" stroke="#231f20" stroke-linejoin="round" stroke-width="3"/>
  <rect x="11.931" y="137.521" width="12.457" height="4.479" fill="#53525e" stroke-width="0"/>
  <rect x="12.775" y="145.839" width="10.478" height="6.156" fill="#53525e" stroke-width="0"/>
  <rect x="29.843" y="137.353" width="12.457" height="4.479" fill="#53525e" stroke-width="0"/>
  <rect x="30.686" y="145.695" width="10.478" height="6.156" fill="#53525e" stroke-width="0"/>
  <rect x="13.711" y="138.75" width="8.739" height="1.929" fill="#d1d1d3" stroke-width="0"/>
  <rect x="5.901" y="163.125" width="4.717" height="10.498" fill="#231f20" stroke="#231f20" stroke-linejoin="round" stroke-width="3"/>
  <rect x="37.433" y="166.469" width="8.781" height="4.285" fill="#231f20" stroke="#231f20" stroke-linejoin="round" stroke-width="3"/>
  <path d="m38.841,124.607c1.572,1.664,1.828,6.408.644,8.575-1.273,2.329,1.676,5.025,3.622,2.666s4.399-6.12,4.984-10.06c1.017-6.847-.471-11.724-5.315-13.422s-1.193-9.716-3.056-5.875c-1.901,3.919-3.638,4.079-4.584,4.289-.569.126.985,2.586,1.188,4.487s.525,7.231,2.517,9.34Z" fill="#ffab3f" stroke="#231f20" stroke-linejoin="round" stroke-width="3"/>
  <path d="m23.681,88.088s-9.117-1.178-10.416,7.979c-.849,5.982,3.809,13.691,3.809,13.691,0,0-6.989-2.215-9.039-10.465-2.051-8.25,1.354-15.826,5.676-16.02,4.322-.194,10.677,2.354,10.677,2.354l-.707,2.461Z" fill="#ffab3f" stroke="#231f20" stroke-linejoin="round" stroke-width="3"/>
  <path d="m30.865,91.586c2.056-1.585,7.504-1.992,8.507,4.333.778,4.907-3.73,14.927-.531,12.149,3.199-2.778,8.408-12.939,5.959-18.836-1.603-3.859-5.959-5.462-5.959-5.462l-7.976,7.816Z" fill="#ffab3f" stroke="#231f20" stroke-linejoin="round" stroke-width="3"/>
  <g>
    <g>
      <path d="m44.748,88.305l5.887-4.648c.644-.509.593-1.511-.109-1.936-3.228-1.955-5.92-4.25-8.029-6.914-.15-.19-.353-.327-.587-.392-4.882-1.362-9.691-3.185-14.42-5.515-.345-.17-.747-.159-1.083.028-4.008,2.228-8.523,3.821-13.502,4.833-.27.055-.513.207-.683.424-2.574,3.296-5.527,5.783-8.794,7.596-.74.411-.818,1.442-.15,1.963l5.835,4.557c.513.401,1.258.32,1.658-.195,1.641-2.11,6.448-6.944,16.054-6.944s14.587,4.869,16.272,6.967c.404.504,1.144.576,1.651.176Z" fill="#425ccc" stroke="#231f20" stroke-miterlimit="10" stroke-width="3.543"/>
      <path d="m26.951,92.42c13.448,0,12.28-2.783,14.737-3.711.72-.272.899-1.194.345-1.729-2.052-1.978-7.082-5.819-15.206-5.819-7.989,0-13.215,3.921-15.453,6.037-.622.588-.378,1.626.441,1.875,2.721.825,1.688,3.346,15.136,3.346Z" fill="#231f20" stroke="#231f20" stroke-linecap="round" stroke-miterlimit="10" stroke-width="3.543"/>
      <path d="m11.346,85.822s4.559-5.332,15.785-5.332c11.432,0,15.424,5.163,15.424,5.163" fill="none" stroke="#fff" stroke-linecap="square" stroke-miterlimit="10" stroke-width="3"/>
    </g>
    <path d="m24.965,73.76c0-1.099.891-1.99,1.99-1.99s1.99.891,1.99,1.99-.891,2.719-1.99,2.719-1.99-1.619-1.99-2.719Z" fill="#f9ec00" stroke-width="0"/>
  </g>
</svg>