<?xml version="1.0" encoding="utf-8"?>
<!-- Generator: Adobe Illustrator 27.6.1, SVG Export Plug-In . SVG Version: 6.00 Build 0)  -->
<svg version="1.1" id="Layer_1" xmlns="http://www.w3.org/2000/svg" xmlns:xlink="http://www.w3.org/1999/xlink" x="0px" y="0px"
	 viewBox="0 0 182.3 182.3" style="enable-background:new 0 0 182.3 182.3;" xml:space="preserve">
<style type="text/css">
	.st0{fill:#A9FFFD;stroke:#000000;stroke-width:6;stroke-miterlimit:10;}
	.st1{fill:#FFFFFF;stroke:#000000;stroke-width:3.6648;stroke-linecap:round;stroke-miterlimit:10;}
	.st2{stroke:#000000;stroke-width:3.6648;stroke-linecap:round;stroke-miterlimit:10;}
	.st3{fill:#FFBBFF;stroke:#000000;stroke-width:6;stroke-miterlimit:10;}
	.st4{fill:#FFFFFF;stroke:#000000;stroke-width:4;stroke-linejoin:round;stroke-miterlimit:10;}
	.st5{fill:none;stroke:#000000;stroke-width:4;stroke-linecap:round;stroke-linejoin:round;}
	.st6{fill:#A6FFB0;stroke:#000000;stroke-width:6;stroke-miterlimit:10;}
	.st7{fill:#FFFFFF;}
	.st8{fill:none;stroke:#000000;stroke-width:4.0494;stroke-linecap:round;stroke-linejoin:round;}
	.st9{fill:#FFFFFF;stroke:#000000;stroke-width:4.0494;stroke-linecap:round;stroke-linejoin:round;}
	.st10{fill:#FFFFFF;stroke:#000000;stroke-width:4.0494;stroke-linecap:round;stroke-miterlimit:10;}
	.st11{fill:none;stroke:#000000;stroke-width:4.0494;stroke-linecap:round;stroke-miterlimit:10;}
	.st12{fill:#FCFF92;stroke:#000000;stroke-width:6;stroke-miterlimit:10;}
	.st13{fill:#FFFFFF;stroke:#000000;stroke-width:4;stroke-miterlimit:10;}
	.st14{fill:#FFFFFF;stroke:#000000;stroke-width:4;stroke-linecap:round;stroke-linejoin:round;}
</style>
<circle class="st0" cx="-338" cy="91.2" r="88.2"/>
<g>
	<circle class="st1" cx="-339.4" cy="60.1" r="12"/>
	<circle class="st1" cx="-301.4" cy="60.1" r="12"/>
	<circle class="st1" cx="-379.1" cy="60.1" r="12"/>
	<line class="st1" x1="-387.7" y1="108.9" x2="-387.7" y2="124.2"/>
	<line class="st1" x1="-370.7" y1="108.9" x2="-370.7" y2="124.2"/>
	<path class="st2" d="M-326,138.7h-28.5v-16.3c0-1.2,1-2.1,2.1-2.1h24.3c1.2,0,2.1,1,2.1,2.1V138.7z"/>
	<path class="st2" d="M-364.8,138.7h-28.5v-6c0-1.5,1.2-2.7,2.7-2.7h23.1c1.5,0,2.7,1.2,2.7,2.7V138.7z"/>
	<path class="st2" d="M-287.2,138.7h-28.5v-26c0-1.1,0.9-2,2-2h24.5c1.1,0,2,0.9,2,2V138.7z"/>
	<path class="st1" d="M-378.6,73.4c-6.4,0-14.7,0.9-14.7,35.5h5.6v15.3h17v-15.3h5.9C-364.8,73.4-372.2,73.4-378.6,73.4z"/>
	<path class="st1" d="M-339.8,72.7c-6.4,0-14.7,0.7-14.7,27.7h5.2v14.1h18.1v-14.1h5.2C-326,72.7-333.4,72.7-339.8,72.7z"/>
	<path class="st1" d="M-287.2,93.5c0-21.4-7.4-21.4-13.8-21.4c-6.4,0-14.7,0.5-14.7,21.4h5.7v11.1h17V93.5H-287.2z"/>
</g>
<circle class="st3" cx="-121" cy="91.2" r="88.2"/>
<g>
	<g id="line_00000165922913170305144420000014001870398154104708_">
		<path class="st4" d="M-56.7,75.4c0-19.4-15.7-35.1-35.1-35.1c-13.3,0-24.9,7.4-30.9,18.4c-5.9-11-17.5-18.4-30.9-18.4
			c-19.4,0-35.1,15.7-35.1,35.1c0,8.3,2.9,16,7.8,22l0,0l58.2,60.2l58.2-60.2l0,0C-59.6,91.3-56.7,83.7-56.7,75.4z"/>
	</g>
	<g id="line_00000158731275880876336450000001121352993478184084_">
		<path class="st5" d="M-151.3,109.8c0,0-9.8-8-11.7-11.3c-6-10.4,1.3-27.1,14.3-29.9"/>
		<path class="st5" d="M-118.9,108.5l17.6,9.6"/>
		<path class="st5" d="M-125.6,115.1l17.8,8.9"/>
		<path class="st5" d="M-92.3,112.2l-7-6l-11.3-5.9"/>
		<path class="st5" d="M-120.6,126.7c11.7,7.5,14.8-0.4,12.8-2.7c3.7,2.2,8.5-0.7,6.5-5.9c5.3,2.5,9.6-1.4,9-5.9
			c4.6,0.8,7.4-2.9,6.1-7.4c9.2-6.3,6.9-26-0.1-34.7c-12.7-2-15.1-3.2-28.7-5.4l-18.5-0.8c-2.7-0.7-5.6,0.8-6.5,3.5
			c-1.1,4-2.8,7.9-4.9,11.5c-1,2.4,0.1,5.2,2.6,6.3c2.6,0.7,3.8-0.5,6.1-2.3c2-1.9,3.7-4,5.2-6.3l18.7,8.5l17.4,9.8
			c3.4,2.3,6.9,8,8.9,10"/>
		<path class="st5" d="M-128.8,123.8c1.2-1.9,3.8-2.4,5.7-1.2c1.9,1.1,3.3,3.2,2,5.6l-2.4,4.2c-1.5,2-4.3,2.4-6.3,0.9
			c-1.6-1.2-2.2-3.4-1.5-5.3L-128.8,123.8L-128.8,123.8z"/>
		<path class="st5" d="M-136.5,119.4c1.2-1.9,3.8-2.4,5.7-1.2c1.9,1.1,3.3,3.2,2,5.6l-2.4,4.2c-1.5,2-4.3,2.4-6.3,0.9
			c-1.6-1.2-2.2-3.4-1.5-5.3L-136.5,119.4L-136.5,119.4z"/>
		<path class="st5" d="M-144.3,115.1c1.2-1.9,3.8-2.4,5.7-1.2c1.9,1.1,3.3,3.2,2,5.6l-2.4,4.2c-1.5,2-4.3,2.4-6.3,0.9
			c-1.6-1.2-2.2-3.4-1.5-5.3L-144.3,115.1L-144.3,115.1z"/>
		<path class="st5" d="M-152,110.8c1.2-1.9,3.8-2.4,5.7-1.2c1.9,1.1,3.3,3.2,2,5.6l-2.4,4.2c-1.5,2-4.3,2.4-6.3,0.9
			c-1.6-1.2-2.2-3.4-1.5-5.3L-152,110.8L-152,110.8z"/>
	</g>
</g>
<circle class="st6" cx="91.2" cy="91.2" r="88.2"/>
<g id="line_00000154418897253068657740000016766630595081843603_">
	<path class="st7" d="M57.5,88.3c0,0-2.2,3.8-2,12.8c0.2,9,19,13.1,19,13.1l46.8-6.4l4.9-11l-13.5-26.8l-0.1-7.2V61l-8-6.1L88,62.1
		l-11.1,7.6L57.5,88.3z"/>
	<line class="st8" x1="55.5" y1="104" x2="55.5" y2="96.9"/>
	<g>
		<path class="st9" d="M110.1,95v-4.7c0-2.2-3.6-4.5-8.1-4.9l-2.1-0.2c-4.4-0.5-8.1-3.7-8.1-7.6s3.6-6.8,8.1-6.8h20.2
			c4.5-0.1,8.2,3.3,8.6,7.7l1.3,22.7"/>
		<path class="st9" d="M98.4,101.2c3.3-3,7.3-5.1,11.7-6"/>
		<path class="st10" d="M55.5,104c2.4,18.3,18.2,31.9,36.6,31.6c20.5,0,38-14.5,38-35.9"/>
		<path class="st9" d="M62.6,90.9c-4.2-0.3-7.3-3.9-7.1-8.1V68.6c-0.5-3.9,2.2-7.5,6.1-8c3.9-0.5,7.5,2.2,8,6.1
			c0.1,0.6,0.1,1.3,0,1.9v14.2C69.9,86.9,66.8,90.5,62.6,90.9z"/>
		<path class="st9" d="M79.7,88.6c-6.7,2.5-10.1-3.9-9.9-8.1V66.3c-0.5-3.9,2.2-7.5,6.1-8c3.9-0.5,7.5,2.2,8,6.1
			c0.1,0.6,0.1,1.3,0,1.9"/>
		<path class="st9" d="M84.1,73.6V62.9c-0.5-3.9,2.2-7.5,6.1-8c3.9-0.5,7.5,2.2,8,6.1c0.1,0.6,0.1,1.3,0,1.9"/>
		<path class="st9" d="M98.4,62.9c-0.5-3.9,2.2-7.5,6.1-8c3.9-0.5,7.5,2.2,8,6.1c0.1,0.6,0.1,1.3,0,1.9"/>
	</g>
</g>
<g>
	<g>
		<line class="st7" x1="149.9" y1="93.4" x2="170" y2="93.4"/>
		<line class="st11" x1="149.9" y1="93.4" x2="170" y2="93.4"/>
	</g>
	<g>
		<line class="st7" x1="146" y1="71" x2="164.5" y2="63.4"/>
		<line class="st11" x1="146" y1="71" x2="164.5" y2="63.4"/>
	</g>
	<g>
		<line class="st7" x1="133.8" y1="51.9" x2="148" y2="37.7"/>
		<line class="st11" x1="133.8" y1="51.9" x2="148" y2="37.7"/>
	</g>
	<g>
		<line class="st7" x1="115.2" y1="38.9" x2="122.9" y2="20.4"/>
		<line class="st11" x1="115.2" y1="38.9" x2="122.9" y2="20.4"/>
	</g>
	<g>
		<line class="st7" x1="93.1" y1="34" x2="93.1" y2="14"/>
		<line class="st11" x1="93.1" y1="34" x2="93.1" y2="14"/>
	</g>
	<g>
		<line class="st7" x1="70.7" y1="38" x2="63.1" y2="19.4"/>
		<line class="st11" x1="70.7" y1="38" x2="63.1" y2="19.4"/>
	</g>
	<g>
		<line class="st7" x1="51.6" y1="50.2" x2="37.5" y2="36"/>
		<line class="st11" x1="51.6" y1="50.2" x2="37.5" y2="36"/>
	</g>
	<g>
		<line class="st7" x1="38.6" y1="68.7" x2="20.1" y2="61.1"/>
		<line class="st11" x1="38.6" y1="68.7" x2="20.1" y2="61.1"/>
	</g>
	<g>
		<line class="st7" x1="33.7" y1="90.9" x2="13.7" y2="90.9"/>
		<line class="st11" x1="33.7" y1="90.9" x2="13.7" y2="90.9"/>
	</g>
</g>
<circle class="st12" cx="303.3" cy="91.2" r="88.2"/>
<g>
	<polyline class="st7" points="296,122.4 266.1,133.7 278.8,143.2 313.9,131.8 	"/>
	<g>
		<path class="st13" d="M315.7,106.5"/>
		<path class="st13" d="M314.5,106.8c-3.6,1-7.3,1.5-11.2,1.5c-22.9,0-41.5-18.6-41.5-41.5s18.6-41.5,41.5-41.5s41.5,18.6,41.5,41.5
			c0,13.9-6.8,26.2-17.3,33.8"/>
		<path class="st13" d="M315.7,106.5c-0.4,0.1-0.8,0.2-1.2,0.4"/>
		<rect x="293.1" y="54.4" width="15.1" height="6.8"/>
		<text transform="matrix(1 0 0 1 292.1948 91.9073)" style="font-family:'Roboto-BlackItalic'; font-size:71.1487px;">i</text>
	</g>
	<g id="line">
		<path class="st14" d="M308.1,122.7l-23.2-8.9c0,0-7.4-2.4-9,1.7c-1,2.4,0.2,5.2,2.6,6.2c0.1,0.1,0.3,0.1,0.4,0.2l17.8,6.4
			l-24.6-8.6c0,0-7.5-3-9.3,2.1c-2,5.7,4.7,7.1,4.7,7.1l20.5,4.8l-28.3-6.7c0,0-4.6-1.3-5.8,3c-1.2,4.2,2.6,5.6,4.4,6.1
			c2.7,0.7,7.3,1.9,7.3,1.9"/>
		<path class="st14" d="M357,123.3c0,0-5.8-0.4-12.5-7.2c-6.1-5.8-22.3-20.3-22.3-20.3c-2.1-1.4-6.2-4.1-9.4-1.5
			c-2.4,1.9-3,5.2-1.5,7.9l10.3,15.2l-10.3,4l10.3-4l-10.3,4L287.4,134l-21.8,4h-10c0,0-6.3,0-6.3,5.1c0,4.9,4.6,5.5,6.6,5.5
			c2,0,25.1,0.1,25.7,0l27.8,1.7L357,157C357,151.1,357.8,139.8,357,123.3"/>
	</g>
</g>
</svg>
