<?xml version="1.0" encoding="utf-8"?>
<!-- Generator: Adobe Illustrator 27.6.1, SVG Export Plug-In . SVG Version: 6.00 Build 0)  -->
<svg version="1.1" id="emoji" xmlns="http://www.w3.org/2000/svg" xmlns:xlink="http://www.w3.org/1999/xlink" x="0px" y="0px"
	 viewBox="0 0 88.7 75.5" style="enable-background:new 0 0 88.7 75.5;" xml:space="preserve">
<style type="text/css">
	.st0{fill:none;stroke:#000000;stroke-width:2;stroke-linecap:round;stroke-linejoin:round;}
	.st1{fill:none;stroke:#000000;stroke-width:2;stroke-linecap:round;stroke-miterlimit:10;}
	.st2{fill:#FFFFFF;}
</style>
<g id="line">
	<path class="st0" d="M52.1,44.5v-2.3c0-1.1-1.8-2.2-4-2.4l-1-0.1c-2.2-0.2-4-1.9-4-3.8s1.8-3.3,4-3.3h10c2.2,0,4.1,1.6,4.2,3.8
		L62,47.6"/>
	<path class="st0" d="M46.3,47.6c1.6-1.5,3.6-2.5,5.8-3"/>
	<path class="st1" d="M25.1,49c1.2,9,9,15.7,18.1,15.6c10.1,0,18.8-7.2,18.8-17.7"/>
	<line class="st0" x1="25.1" y1="49" x2="25.1" y2="45.5"/>
	<path class="st0" d="M28.7,42.5c-2.1-0.2-3.6-1.9-3.5-4v-7c-0.3-1.9,1.1-3.7,3-4c1.9-0.3,3.7,1.1,4,3c0,0.3,0,0.6,0,0.9v7
		C32.3,40.6,30.7,42.3,28.7,42.5z"/>
	<path class="st0" d="M37.1,41.4c-3.3,1.2-5-1.9-4.9-4v-7c-0.3-1.9,1.1-3.7,3-4c1.9-0.3,3.7,1.1,4,3c0,0.3,0,0.6,0,0.9"/>
	<path class="st0" d="M39.3,34v-5.3c-0.3-1.9,1.1-3.7,3-4c1.9-0.3,3.7,1.1,4,3c0,0.3,0,0.6,0,0.9"/>
	<path class="st0" d="M46.4,28.7c-0.3-1.9,1.1-3.7,3-4c1.9-0.3,3.7,1.1,4,3c0,0.3,0,0.6,0,0.9"/>
</g>
<g>
	<g>
		<line class="st2" x1="71.8" y1="43.7" x2="81.7" y2="43.7"/>
		<line class="st1" x1="71.8" y1="43.7" x2="81.7" y2="43.7"/>
	</g>
	<g>
		<line class="st2" x1="69.9" y1="32.7" x2="79" y2="28.9"/>
		<line class="st1" x1="69.9" y1="32.7" x2="79" y2="28.9"/>
	</g>
	<g>
		<line class="st2" x1="63.8" y1="23.3" x2="70.8" y2="16.3"/>
		<line class="st1" x1="63.8" y1="23.3" x2="70.8" y2="16.3"/>
	</g>
	<g>
		<line class="st2" x1="54.7" y1="16.8" x2="58.4" y2="7.7"/>
		<line class="st1" x1="54.7" y1="16.8" x2="58.4" y2="7.7"/>
	</g>
	<g>
		<line class="st2" x1="43.7" y1="14.4" x2="43.7" y2="4.5"/>
		<line class="st1" x1="43.7" y1="14.4" x2="43.7" y2="4.5"/>
	</g>
	<g>
		<line class="st2" x1="32.7" y1="16.4" x2="28.9" y2="7.2"/>
		<line class="st1" x1="32.7" y1="16.4" x2="28.9" y2="7.2"/>
	</g>
	<g>
		<line class="st2" x1="23.3" y1="22.4" x2="16.3" y2="15.4"/>
		<line class="st1" x1="23.3" y1="22.4" x2="16.3" y2="15.4"/>
	</g>
	<g>
		<line class="st2" x1="16.8" y1="31.6" x2="7.7" y2="27.8"/>
		<line class="st1" x1="16.8" y1="31.6" x2="7.7" y2="27.8"/>
	</g>
	<g>
		<line class="st2" x1="14.4" y1="42.5" x2="4.5" y2="42.5"/>
		<line class="st1" x1="14.4" y1="42.5" x2="4.5" y2="42.5"/>
	</g>
</g>
</svg>
