<?xml version="1.0" encoding="utf-8"?>
<!-- Generator: Adobe Illustrator 28.0.0, SVG Export Plug-In . SVG Version: 6.00 Build 0)  -->
<svg version="1.1" id="Layer_1" xmlns="http://www.w3.org/2000/svg" xmlns:xlink="http://www.w3.org/1999/xlink" x="0px" y="0px"
	 viewBox="0 0 64.4 59.6" style="enable-background:new 0 0 64.4 59.6;" xml:space="preserve">
<style type="text/css">
	.st0{fill:#FFFFFF;stroke:#231F20;stroke-width:3;stroke-miterlimit:10;}
	.st1{fill:#FFFFFF;}
	.st2{fill:#231F20;}
</style>
<g>
	<ellipse class="st0" cx="32.2" cy="23.5" rx="30.7" ry="22"/>
	<g>
		<polyline class="st1" points="22.5,42.5 21.9,58.1 43,42 		"/>
		<path class="st2" d="M21.9,59.6c-0.2,0-0.5-0.1-0.7-0.2c-0.5-0.3-0.8-0.8-0.8-1.4l0.6-13.7c0-0.8,0.8-1.7,1.6-1.5
			c0.8,0.2,1.5,0.4,1.4,1.6L23.5,55l14.6-11c0.7-0.5,2.5-0.9,3.8-1.2c0.8-0.2-1,2.6-1.6,3.1L22.8,59.3
			C22.5,59.5,22.2,59.6,21.9,59.6z"/>
	</g>
</g>
</svg>
