<?xml version="1.0" encoding="UTF-8"?>
<svg id="a" data-name="Layer 1" xmlns="http://www.w3.org/2000/svg" viewBox="0 0 1011.589 92.043">
  <path d="m73.933,58.903c0,17.981-15.297,33.01-33.547,33.01h-6.709C15.025,91.913.13,76.885.13,58.903v-25.764C.13,15.159,15.025.13,33.677.13h6.709c18.249,0,33.547,15.029,33.547,33.01v1.207c0,.671-.403,1.074-1.074,1.074h-10.064c-.671,0-1.074-.402-1.074-1.074v-1.207c0-11.54-10.064-20.933-21.202-20.933h-6.843c-11.809,0-21.067,9.393-21.067,20.933v25.764c0,11.54,9.259,20.933,21.067,20.933h6.843c11.137,0,21.202-9.392,21.202-20.933v-1.207c0-.671.402-1.074,1.074-1.074h10.064c.671,0,1.074.402,1.074,1.074v1.207Z" stroke="#000" stroke-miterlimit="10" stroke-width=".26"/>
  <path d="m102.377,90.303c-.537,0-.94-.402-.94-.939V2.679c0-.537.403-.939.94-.939h10.466c.537,0,.94.402.94.939v86.684c0,.537-.403.939-.94.939h-10.466Z" stroke="#000" stroke-miterlimit="10" stroke-width=".26"/>
  <path d="m212.811,2.813v1.342c0,1.074-.537,1.879-1.208,2.684l-6.038,6.172c-.671.671-1.61,1.074-2.684,1.074h-20.397c-2.147,0-3.757,1.61-3.757,3.757v71.387c0,.671-.403,1.074-1.074,1.074h-10.332c-.671,0-1.074-.402-1.074-1.074V17.843c0-2.147-1.61-3.757-3.757-3.757h-29.118c-.671,0-1.074-.402-1.074-1.074V2.813c0-.671.403-1.073,1.074-1.073h78.365c.671,0,1.074.402,1.074,1.073Z" stroke="#000" stroke-miterlimit="10" stroke-width=".26"/>
  <path d="m231.192,90.303c-.537,0-.94-.402-.94-.939V2.679c0-.537.403-.939.94-.939h10.466c.537,0,.94.402.94.939v86.684c0,.537-.403.939-.94.939h-10.466Z" stroke="#000" stroke-miterlimit="10" stroke-width=".26"/>
  <path d="m335.05,11.536v7.112c0,2.952-1.341,5.636-3.623,7.514l-57.163,49.246c-1.074.94-.537,2.55.805,2.55h57.834c.671,0,1.074.402,1.074,1.074v10.198c0,.671-.403,1.074-1.074,1.074h-59.176c-5.367,0-9.795-4.428-9.795-9.795v-7.112c0-2.952,1.342-5.636,3.623-7.514l57.163-49.247c.94-.805.537-2.549-.939-2.549h-57.7c-.671,0-1.074-.402-1.074-1.074V2.813c0-.671.402-1.073,1.074-1.073h59.176c5.367,0,9.795,4.428,9.795,9.795Z" stroke="#000" stroke-miterlimit="10" stroke-width=".26"/>
  <path d="m418.511,77.958c.537,0,1.074.537,1.074,1.074v10.198c0,.537-.537,1.074-1.074,1.074h-42.269c-11.271,0-20.262-8.99-20.262-20.262V2.813c0-.537.537-1.073,1.074-1.073h61.457c.537,0,1.074.536,1.074,1.073v10.198c0,.537-.537,1.074-1.074,1.074h-48.978c-.537,0-1.074.537-1.074,1.074v23.617c0,.537.537,1.074,1.074,1.074h41.329c.537,0,1.074.537,1.074,1.074v9.93c0,.537-.537,1.074-1.074,1.074h-38.645c-2.013,0-3.757,1.744-3.757,3.757v18.518c0,2.013,1.745,3.757,3.757,3.757h46.294Z" stroke="#000" stroke-miterlimit="10" stroke-width=".26"/>
  <path d="m516.061,2.813v83.196c0,2.683-1.61,4.294-4.294,4.294h-7.649c-2.281,0-4.025-.805-5.233-2.818l-42.805-66.556c-.537-.805-1.342-.537-1.342.402v67.898c0,.671-.402,1.074-1.074,1.074h-10.332c-.671,0-1.074-.402-1.074-1.074V2.813c0-.671.403-1.073,1.074-1.073h12.479c1.074,0,1.879.268,2.549,1.341l43.879,68.033c.537.805,1.342.537,1.342-.402V2.813c0-.671.403-1.073,1.074-1.073h10.332c.671,0,1.074.402,1.074,1.073Z" stroke="#000" stroke-miterlimit="10" stroke-width=".26"/>
  <path d="m647.156,84.667v3.488c0,1.342-.805,2.147-2.147,2.147h-4.562c-1.074,0-1.879-.268-2.684-1.074l-3.623-3.623c-.268-.268-.671-.402-1.074-.134-5.636,4.025-12.345,6.441-19.591,6.441h-6.441c-18.652,0-33.547-15.029-33.547-33.01v-25.764c0-17.981,14.895-33.01,33.547-33.01h6.441c18.249,0,33.547,15.029,33.547,33.01v25.764c0,6.441-2.013,12.479-5.368,17.578-.268.537-.134.94.135,1.208l4.294,4.294c.805.805,1.074,1.61,1.074,2.684Zm-21.738-6.441c.537-.268.671-.671.268-1.074l-8.722-8.722c-.402-.402-.402-1.207,0-1.61l6.172-6.172c.403-.402,1.208-.402,1.61,0l7.917,7.917c.402.402.939.402,1.074-.268.537-2.281.805-4.965.805-8.051v-27.106c0-11.54-9.796-20.933-20.933-20.933h-6.575c-11.808,0-21.067,9.393-21.067,20.933v25.764c0,11.54,9.259,20.933,21.067,20.933h7.917c4.16,0,7.649-.536,10.467-1.61Z" stroke="#000" stroke-miterlimit="10" stroke-width=".26"/>
  <path d="m742.694,58.903c0,17.981-15.298,33.01-33.547,33.01h-5.367c-18.652,0-33.547-15.029-33.547-33.01V2.813c0-.537.537-1.073,1.074-1.073h10.332c.537,0,1.074.536,1.074,1.073v56.09c0,11.54,9.259,20.933,21.067,20.933h5.502c11.137,0,20.933-9.392,20.933-20.933V2.813c0-.537.536-1.073,1.073-1.073h10.333c.537,0,1.074.536,1.074,1.073v56.09Z" stroke="#000" stroke-miterlimit="10" stroke-width=".26"/>
  <path d="m830.583,77.958c.537,0,1.074.537,1.074,1.074v10.198c0,.537-.537,1.074-1.074,1.074h-42.268c-11.272,0-20.263-8.99-20.263-20.262V2.813c0-.537.537-1.073,1.074-1.073h61.457c.537,0,1.074.536,1.074,1.073v10.198c0,.537-.537,1.074-1.074,1.074h-48.978c-.537,0-1.073.537-1.073,1.074v23.617c0,.537.536,1.074,1.073,1.074h41.33c.536,0,1.073.537,1.073,1.074v9.93c0,.537-.537,1.074-1.073,1.074h-38.646c-2.013,0-3.757,1.744-3.757,3.757v18.518c0,2.013,1.744,3.757,3.757,3.757h46.294Z" stroke="#000" stroke-miterlimit="10" stroke-width=".26"/>
  <path d="m919.411,63.868v1.61c0,14.626-11.809,26.434-26.435,26.434h-16.907c-14.224,0-26.434-11.272-26.434-25.361,0-.537.402-1.074,1.074-1.074h10.735c.537,0,.939.402.939.939,0,6.978,6.575,13.418,13.687,13.418h16.907c7.515,0,13.687-6.978,13.687-14.357v-1.61c0-6.844-5.77-12.345-12.614-12.345h-17.31c-13.956,0-25.63-11.137-25.63-25.092,0-14.358,11.809-26.301,26.435-26.301h13.955c14.224,0,26.434,11.271,26.434,25.361,0,.537-.402,1.074-1.073,1.074h-10.735c-.537,0-.94-.402-.94-.939,0-6.978-6.575-13.419-13.687-13.419h-13.955c-7.514,0-13.687,6.978-13.687,14.09,0,6.844,6.039,12.345,12.748,12.345h17.444c14.09,0,25.361,11.137,25.361,25.227Z" stroke="#000" stroke-miterlimit="10" stroke-width=".26"/>
  <path d="m1011.459,2.813v1.342c0,1.074-.536,1.879-1.207,2.684l-6.039,6.172c-.671.671-1.61,1.074-2.683,1.074h-20.397c-2.147,0-3.757,1.61-3.757,3.757v71.387c0,.671-.402,1.074-1.073,1.074h-10.333c-.671,0-1.074-.402-1.074-1.074V17.843c0-2.147-1.61-3.757-3.757-3.757h-29.118c-.671,0-1.074-.402-1.074-1.074V2.813c0-.671.402-1.073,1.074-1.073h78.365c.671,0,1.073.402,1.073,1.073Z" stroke="#000" stroke-miterlimit="10" stroke-width=".26"/>
</svg>