<?xml version="1.0" encoding="UTF-8"?>
<svg id="a" data-name="Layer 1" xmlns="http://www.w3.org/2000/svg" viewBox="0 0 642.281 255.722">
  <path d="m91.992,73.292c0,22.374-19.034,41.074-41.741,41.074h-8.348C18.695,114.366.162,95.666.162,73.292v-32.056C.162,18.862,18.695.162,41.903.162h8.348c22.707,0,41.741,18.701,41.741,41.074v1.502c0,.834-.501,1.336-1.335,1.336h-12.523c-.834,0-1.336-.501-1.336-1.336v-1.502c0-14.359-12.522-26.047-26.38-26.047h-8.515c-14.693,0-26.213,11.688-26.213,26.047v32.056c0,14.359,11.52,26.047,26.213,26.047h8.515c13.858,0,26.38-11.688,26.38-26.047v-1.502c0-.835.501-1.336,1.336-1.336h12.523c.834,0,1.335.501,1.335,1.336v1.502Z" stroke="#000" stroke-miterlimit="10" stroke-width=".324"/>
  <path d="m127.384,112.362c-.668,0-1.168-.501-1.168-1.168V3.334c0-.667.501-1.168,1.168-1.168h13.023c.668,0,1.168.501,1.168,1.168v107.86c0,.668-.501,1.168-1.168,1.168h-13.023Z" stroke="#000" stroke-miterlimit="10" stroke-width=".324"/>
  <path d="m264.794,3.501v1.67c0,1.336-.668,2.338-1.502,3.339l-7.514,7.681c-.834.834-2.004,1.336-3.34,1.336h-25.378c-2.672,0-4.675,2.003-4.675,4.675v88.825c0,.835-.501,1.336-1.336,1.336h-12.856c-.834,0-1.336-.501-1.336-1.336V22.201c0-2.672-2.004-4.675-4.675-4.675h-36.232c-.834,0-1.335-.501-1.335-1.336V3.501c0-.834.501-1.336,1.335-1.336h97.507c.835,0,1.336.501,1.336,1.336Z" stroke="#000" stroke-miterlimit="10" stroke-width=".324"/>
  <path d="m287.664,112.362c-.668,0-1.168-.501-1.168-1.168V3.334c0-.667.501-1.168,1.168-1.168h13.023c.668,0,1.168.501,1.168,1.168v107.86c0,.668-.501,1.168-1.168,1.168h-13.023Z" stroke="#000" stroke-miterlimit="10" stroke-width=".324"/>
  <path d="m416.893,14.354v8.85c0,3.673-1.67,7.012-4.508,9.349l-71.127,61.276c-1.336,1.169-.668,3.173,1.002,3.173h71.962c.834,0,1.336.501,1.336,1.336v12.689c0,.835-.501,1.336-1.336,1.336h-73.631c-6.678,0-12.188-5.51-12.188-12.188v-8.849c0-3.673,1.67-7.013,4.508-9.35l71.126-61.276c1.169-1.002.668-3.172-1.168-3.172h-71.794c-.835,0-1.336-.501-1.336-1.336V3.501c0-.834.501-1.336,1.336-1.336h73.631c6.679,0,12.189,5.511,12.189,12.188Z" stroke="#000" stroke-miterlimit="10" stroke-width=".324"/>
  <path d="m520.74,97.002c.668,0,1.336.668,1.336,1.336v12.689c0,.668-.668,1.336-1.336,1.336h-52.593c-14.025,0-25.212-11.187-25.212-25.211V3.501c0-.668.668-1.336,1.336-1.336h76.47c.668,0,1.336.668,1.336,1.336v12.689c0,.668-.668,1.336-1.336,1.336h-60.942c-.668,0-1.336.668-1.336,1.336v29.385c0,.668.668,1.336,1.336,1.336h51.426c.668,0,1.335.668,1.335,1.336v12.355c0,.668-.667,1.336-1.335,1.336h-48.086c-2.504,0-4.675,2.17-4.675,4.675v23.041c0,2.504,2.171,4.675,4.675,4.675h57.602Z" stroke="#000" stroke-miterlimit="10" stroke-width=".324"/>
  <path d="m642.119,3.501v103.517c0,3.34-2.004,5.343-5.342,5.343h-9.517c-2.838,0-5.008-1.002-6.512-3.506l-53.261-82.815c-.668-1.001-1.67-.668-1.67.501v84.484c0,.835-.501,1.336-1.336,1.336h-12.856c-.835,0-1.336-.501-1.336-1.336V3.501c0-.834.501-1.336,1.336-1.336h15.528c1.336,0,2.338.335,3.172,1.67l54.597,84.651c.668,1.001,1.67.668,1.67-.501V3.501c0-.834.501-1.336,1.336-1.336h12.856c.835,0,1.336.501,1.336,1.336Z" stroke="#000" stroke-miterlimit="10" stroke-width=".324"/>
  <path d="m165.537,246.544v4.341c0,1.67-1.002,2.672-2.672,2.672h-5.676c-1.336,0-2.338-.334-3.34-1.336l-4.508-4.508c-.334-.334-.834-.501-1.336-.167-7.012,5.008-15.36,8.014-24.377,8.014h-8.014c-23.208,0-41.741-18.7-41.741-41.073v-32.057c0-22.373,18.533-41.074,41.741-41.074h8.014c22.707,0,41.741,18.701,41.741,41.074v32.057c0,8.014-2.504,15.528-6.678,21.872-.334.668-.167,1.168.167,1.502l5.342,5.343c1.002,1.002,1.336,2.004,1.336,3.34Zm-27.049-8.015c.668-.334.835-.834.334-1.335l-10.852-10.853c-.501-.501-.501-1.502,0-2.004l7.68-7.68c.501-.501,1.503-.501,2.004,0l9.851,9.851c.501.501,1.168.501,1.335-.334.668-2.839,1.002-6.178,1.002-10.019v-33.726c0-14.359-12.188-26.047-26.046-26.047h-8.181c-14.693,0-26.213,11.688-26.213,26.047v32.057c0,14.358,11.52,26.046,26.213,26.046h9.851c5.176,0,9.516-.668,13.023-2.004Z" stroke="#000" stroke-miterlimit="10" stroke-width=".324"/>
  <path d="m284.411,214.487c0,22.373-19.034,41.073-41.741,41.073h-6.679c-23.208,0-41.741-18.7-41.741-41.073v-69.791c0-.668.668-1.336,1.336-1.336h12.856c.668,0,1.336.668,1.336,1.336v69.791c0,14.358,11.521,26.046,26.213,26.046h6.846c13.858,0,26.047-11.688,26.047-26.046v-69.791c0-.668.668-1.336,1.336-1.336h12.856c.668,0,1.336.668,1.336,1.336v69.791Z" stroke="#000" stroke-miterlimit="10" stroke-width=".324"/>
  <path d="m393.768,238.195c.668,0,1.336.668,1.336,1.336v12.689c0,.668-.668,1.336-1.336,1.336h-52.593c-14.025,0-25.212-11.186-25.212-25.211v-83.649c0-.668.668-1.336,1.336-1.336h76.47c.668,0,1.336.668,1.336,1.336v12.689c0,.668-.668,1.336-1.336,1.336h-60.942c-.668,0-1.336.668-1.336,1.336v29.385c0,.668.668,1.336,1.336,1.336h51.426c.668,0,1.335.668,1.335,1.336v12.355c0,.668-.667,1.335-1.335,1.335h-48.086c-2.504,0-4.675,2.171-4.675,4.675v23.041c0,2.504,2.171,4.675,4.675,4.675h57.602Z" stroke="#000" stroke-miterlimit="10" stroke-width=".324"/>
  <path d="m504.295,220.665v2.003c0,18.199-14.693,32.892-32.892,32.892h-21.037c-17.698,0-32.892-14.025-32.892-31.557,0-.668.501-1.336,1.336-1.336h13.357c.668,0,1.168.501,1.168,1.169,0,8.682,8.181,16.696,17.03,16.696h21.037c9.351,0,17.031-8.682,17.031-17.865v-2.003c0-8.515-7.18-15.361-15.695-15.361h-21.538c-17.365,0-31.891-13.858-31.891-31.223,0-17.865,14.693-32.725,32.892-32.725h17.364c17.698,0,32.892,14.025,32.892,31.557,0,.668-.501,1.336-1.335,1.336h-13.357c-.668,0-1.169-.501-1.169-1.168,0-8.683-8.181-16.697-17.03-16.697h-17.364c-9.35,0-17.031,8.682-17.031,17.531,0,8.515,7.514,15.361,15.862,15.361h21.705c17.531,0,31.557,13.858,31.557,31.389Z" stroke="#000" stroke-miterlimit="10" stroke-width=".324"/>
  <path d="m618.828,144.696v1.67c0,1.336-.667,2.338-1.502,3.339l-7.514,7.681c-.834.834-2.004,1.336-3.339,1.336h-25.379c-2.672,0-4.675,2.003-4.675,4.675v88.825c0,.835-.501,1.336-1.335,1.336h-12.857c-.834,0-1.336-.501-1.336-1.336v-88.825c0-2.672-2.003-4.675-4.675-4.675h-36.231c-.835,0-1.336-.501-1.336-1.336v-12.689c0-.834.501-1.336,1.336-1.336h97.507c.834,0,1.335.501,1.335,1.336Z" stroke="#000" stroke-miterlimit="10" stroke-width=".324"/>
</svg>